<svg width="1236" height="426" viewBox="0 0 1236 426" fill="none" xmlns="http://www.w3.org/2000/svg">
<mask id="mask0_0_1" style="mask-type:luminance" maskUnits="userSpaceOnUse" x="0" y="0" width="1236" height="426">
<path d="M1236 0H0V426H1236V0Z" fill="white"/>
</mask>
<g mask="url(#mask0_0_1)">
<path d="M1157.75 116.346C1157.59 115.878 1157.43 115.41 1157.22 114.942C1031.34 114.989 905.522 114.942 779.702 114.989C779.383 115.316 779.171 115.644 779.118 116.065C779.118 202.032 779.118 287.952 779.065 373.919C779.862 378.504 782.731 382.669 786.556 385.805C786.716 385.852 787.088 385.898 787.247 385.945C789.213 387.769 792.029 388.66 794.686 389.502C796.652 389.409 798.565 390.157 800.531 389.97H956.743C958.231 389.923 959.772 390.157 961.206 389.643C961.259 389.456 961.312 389.128 961.366 388.941C961.419 388.707 961.472 388.192 961.525 387.912C964.872 371.439 968.114 354.92 971.673 338.447L971.992 336.341C957.545 336.294 943.035 336.341 928.588 336.294C925.075 336.201 921.468 336.294 917.961 335.919C911.957 335.685 905.9 335.872 899.895 335.358C892.457 335.358 885.071 334.749 877.633 334.749C871.788 334.234 865.89 334.422 859.992 334.188C856.167 333.768 852.235 333.954 848.356 333.813C842.033 333.205 835.604 333.627 829.281 333.018C822.586 333.066 815.891 332.55 809.197 332.409C809.25 332.362 809.303 332.175 809.303 332.128C811.534 332.175 813.713 332.035 815.945 331.988C820.886 331.426 825.881 331.801 830.822 331.192C835.976 331.192 841.077 330.584 846.231 330.584C850.8 330.022 855.423 330.35 859.992 329.788C865.359 329.788 870.619 329.18 875.985 329.133C880.395 328.618 884.859 328.899 889.269 328.384C894.423 328.431 899.524 327.729 904.677 327.777C909.725 327.261 914.879 327.401 919.927 326.933C919.449 325.203 919.077 323.471 918.652 321.738C918.28 320.662 916.792 320.896 915.835 320.756C904.306 319.304 892.829 317.855 881.352 316.451C882.096 315.935 883.105 316.169 883.955 316.076C892.882 315.467 901.755 314.765 910.682 314.204C912.701 314.111 914.667 313.783 916.686 313.736C915.782 311.303 915.251 308.635 914.029 306.389C894.954 303.815 875.879 301.522 856.857 298.761C861.799 298.059 866.793 297.732 871.735 297.264L872.16 297.123C887.94 295.671 903.774 294.033 919.555 292.677C939.586 292.584 959.564 292.629 979.596 292.677C980.233 292.584 981.349 292.863 981.455 292.068C983.102 284.488 984.696 276.907 986.344 269.325C988.628 258.796 992.241 248.407 997.82 238.813C1006.59 223.37 1020.46 210.267 1037.35 201.563C1053.13 193.42 1071.41 189.489 1089.58 188.741C1095.48 188.273 1101.43 188.413 1107.28 189.068C1111.1 189.864 1115.03 190.8 1118.06 193.093C1120.56 194.871 1122.05 197.492 1123.16 200.112C1125.61 206.336 1126.99 212.794 1128.16 219.299C1128.21 221.92 1128.74 224.868 1127.15 227.255C1125.66 229.595 1122.68 230.718 1119.87 231.42C1109.61 233.76 1098.88 231.56 1088.63 233.76C1080.18 235.351 1072.31 239.469 1066.95 245.412C1060.62 252.338 1057.28 260.948 1055.42 269.56C1053.98 277.234 1052.18 284.909 1050.74 292.63C1060.84 292.678 1070.99 292.584 1081.13 292.678C1085.17 292.678 1089.32 294.643 1090.96 298.012C1093.09 302.318 1092.61 307.185 1091.92 311.724C1091.07 316.825 1089.69 321.879 1087.08 326.558C1084.9 330.536 1081.29 334.187 1076.35 335.591C1073.8 336.48 1071.04 336.293 1068.33 336.293C1059.4 336.293 1050.47 336.386 1041.55 336.293C1040.11 342.049 1039.16 347.945 1037.88 353.795C1035.55 365.166 1033.26 376.585 1030.92 388.004C1030.87 388.379 1030.82 389.174 1030.82 389.595C1035.01 389.782 1039.21 389.595 1043.41 389.688C1074.55 389.688 1105.73 389.64 1136.92 389.688C1140.27 389.782 1143.67 389.08 1146.59 387.629C1148.35 387.068 1149.41 385.71 1150.95 384.962C1152.44 384.213 1152.86 382.67 1154.14 381.686C1155.52 379.534 1156.96 377.288 1157.06 374.76C1157.22 374.76 1157.65 374.713 1157.86 374.667C1157.69 288.56 1157.85 202.453 1157.75 116.346Z" fill="url(#paint0_linear_0_1)" stroke="#FCD109" stroke-width="0.094"/>
<path d="M828.644 59.7213C833.16 58.4577 837.889 59.3001 842.511 59.0193C929.278 59.0661 1016.05 59.0193 1102.81 59.0193C1107.97 58.8321 1112.48 61.406 1117.26 62.7163C1121.09 64.0734 1125.08 65.1497 1128.9 66.6005C1129.7 66.8813 1130.28 67.4896 1130.86 68.0044C1130.81 74.1816 1130.86 80.4057 1130.86 86.6297C1130.92 88.2676 1130.6 89.9524 1131.23 91.5435C1132.35 91.6839 1132.93 92.4326 1133.68 93.041C1137.19 94.4449 1140.16 96.738 1143.35 98.6099C1148.13 101.605 1153.24 104.226 1157.91 107.314C1158.12 108.531 1157.96 109.794 1157.53 110.918C1157.06 112.228 1157.37 113.632 1157.22 114.942C1031.34 114.989 905.522 114.942 779.702 114.989C779.437 113.445 779.915 111.9 779.171 110.45C779.065 109.233 778.586 107.642 779.915 106.799C785.228 103.524 790.86 100.575 796.067 97.1124C799.309 95.2873 802.443 93.4154 805.578 91.5435C806.216 90.6075 806.003 89.4376 806.003 88.408C806.003 81.6224 806.003 74.8368 806.056 68.0512C807.863 65.9921 810.998 65.7581 813.495 64.7286C818.548 63.0439 823.649 61.406 828.644 59.7213ZM828.962 60.5168C822.161 62.8099 815.307 65.0094 808.506 67.3024C807.603 67.4428 807.119 68.1448 806.646 68.7531C806.699 69.1275 806.752 69.7827 806.752 70.1571C806.694 75.7728 806.752 81.3884 806.694 87.0041C806.752 88.408 806.535 89.812 807.119 91.0755C806.428 91.6839 805.69 92.2922 804.834 92.7602C797.13 97.1592 789.691 101.932 781.987 106.285C780.659 106.987 779.171 107.922 779.596 109.467C779.33 110.309 779.808 111.011 780.818 110.777C797.502 110.684 814.133 110.871 830.822 110.637C855.635 110.637 880.395 110.684 905.209 110.637L905.581 110.496C906.696 110.73 907.807 110.637 908.976 110.637C953.927 110.637 998.878 110.684 1043.88 110.637C1058.02 110.684 1072.2 110.637 1086.39 110.637C1109.77 110.637 1133.2 110.824 1156.58 110.73C1157.27 110.59 1157.48 110.169 1157.22 109.42C1157.16 108.671 1157.48 107.642 1156.58 107.174C1152.86 105.629 1149.67 103.243 1146.11 101.371C1144.84 100.435 1143.19 99.9202 1142.23 98.6567C1138.57 96.8316 1135.17 94.5853 1131.55 92.573C1130.86 92.1986 1130.33 91.5903 1129.75 91.0755C1130.06 90.0927 1130.17 89.0164 1130.17 87.9869C1130.12 82.0436 1130.17 76.1003 1130.12 70.1571C1130.28 69.2211 1130.22 68.1448 1129.27 67.5364C1122.89 65.5241 1116.57 63.3715 1110.25 61.3124C1108.28 60.47 1106.1 60.002 1103.98 59.7213H832.411C831.247 59.7681 830.131 60.2828 828.962 60.5168Z" fill="#F8F3B5" stroke="#F8F3B5" stroke-width="0.094"/>
<path d="M806.747 70.1569C811.423 71.8884 816.417 72.8711 821.146 74.5558C823.697 75.445 824.494 77.8784 825.61 79.8439C824.494 80.8267 823.165 81.6222 821.837 82.371C816.949 85.2724 811.954 88.0803 807.119 91.0753C806.535 89.8118 806.747 88.4078 806.694 87.0039C806.747 81.3882 806.694 75.7725 806.747 70.1569ZM1115.72 74.5558C1120.45 72.9179 1125.39 71.7948 1130.12 70.1569C1130.17 76.1001 1130.12 82.0434 1130.17 87.9867C1130.17 89.0162 1130.06 90.0925 1129.75 91.0753C1125.6 88.5482 1121.4 86.1616 1117.26 83.6813C1115.24 82.371 1113.01 81.3882 1111.2 79.7971C1112.32 77.8316 1113.17 75.445 1115.72 74.5558Z" fill="#F7B402" stroke="#F7B402" stroke-width="0.094"/>
<path d="M887.834 76.4748C893.679 75.258 900.214 79.8442 899.736 85.2259C899.789 90.514 893.461 94.8193 887.675 93.6026C885.337 92.9006 883.1 91.8243 881.671 89.9992C879.811 87.5189 879.381 84.1963 880.874 81.4821C881.936 78.8614 884.806 77.0831 887.834 76.4748ZM1039.42 79.423C1041.87 77.0363 1045.75 75.6792 1049.36 76.5216C1052.07 77.2235 1054.73 78.7678 1055.9 81.1077C1058.23 85.1323 1056.43 90.5608 1051.86 92.6667C1047.81 94.6321 1042.72 93.6962 1039.64 90.8416C1036.5 87.7061 1036.28 82.5584 1039.42 79.423Z" fill="#BDA727" stroke="#BDA727" stroke-width="0.094"/>
<path d="M821.842 82.3713C823.171 81.6225 824.499 80.827 825.615 79.8442L825.987 80.1718C826.359 82.6053 826.093 85.0855 826.199 87.519C826.04 94.8194 826.359 102.167 825.987 109.467C810.525 109.467 795.063 109.373 779.601 109.467C779.176 107.923 780.664 106.987 781.992 106.285C789.697 101.933 797.135 97.1593 804.84 92.7603C805.69 92.2923 806.434 91.684 807.124 91.0756C811.96 88.0806 816.954 85.2727 821.842 82.3713ZM1110.67 81.4353C1110.67 80.827 1110.84 80.3122 1111.2 79.7974C1113.01 81.3885 1115.25 82.3713 1117.26 83.6816C1121.4 86.1619 1125.6 88.5485 1129.75 91.0756C1130.33 91.5904 1130.86 92.1987 1131.55 92.5731C1135.17 94.5854 1138.57 96.8317 1142.23 98.6568C1143.19 99.9203 1144.84 100.435 1146.11 101.371C1149.67 103.243 1152.86 105.63 1156.58 107.174C1157.48 107.642 1157.16 108.671 1157.22 109.42C1141.75 109.467 1126.34 109.373 1110.88 109.467C1110.62 107.595 1110.78 105.723 1110.72 103.898C1110.73 96.4105 1110.62 88.9229 1110.67 81.4353Z" fill="#F7E62D" stroke="#F7E62D" stroke-width="0.094"/>
<path d="M1157.22 109.42C1141.75 109.467 1126.34 109.373 1110.89 109.467C1110.62 107.595 1110.78 105.723 1110.73 103.898C1110.73 96.4103 1110.62 88.9227 1110.67 81.4351C1110.67 80.8268 1110.84 80.312 1111.2 79.7972C1112.32 77.8318 1113.17 75.4451 1115.72 74.5559C1120.45 72.918 1125.39 71.7949 1130.12 70.157C1130.28 69.221 1130.23 68.1447 1129.27 67.5363C1122.89 65.524 1116.57 63.3714 1110.25 61.3123C1108.28 60.4699 1106.1 60.0019 1103.98 59.7212H832.411C831.242 59.768 830.126 60.2827 828.957 60.5167C822.156 62.8098 815.302 65.0093 808.501 67.3023C807.597 67.4427 807.119 68.1447 806.641 68.7531C806.694 69.1274 806.747 69.7826 806.747 70.157C811.423 71.8885 816.417 72.8712 821.146 74.5559C823.697 75.4451 824.494 77.8785 825.609 79.844L825.982 80.1716C826.353 82.6051 826.088 85.0853 826.194 87.5188C826.035 94.8192 826.353 102.166 825.982 109.467C810.52 109.467 795.058 109.373 779.596 109.467C779.33 110.309 779.808 111.011 780.818 110.777C797.502 110.684 814.133 110.871 830.817 110.637C855.63 110.637 880.39 110.684 905.203 110.637L905.575 110.496C906.691 110.73 907.807 110.637 908.976 110.637C953.927 110.637 998.878 110.684 1043.88 110.637C1058.02 110.684 1072.2 110.637 1086.39 110.637C1109.77 110.637 1133.2 110.824 1156.58 110.73C1157.27 110.59 1157.49 110.169 1157.22 109.42ZM880.874 81.4819C881.936 78.8613 884.8 77.083 887.834 76.4746C893.679 75.2579 900.214 79.844 899.736 85.2257C899.789 90.5138 893.461 94.8192 887.675 93.6025C885.337 92.9005 883.1 91.8242 881.671 89.9991C879.811 87.5188 879.386 84.1962 880.874 81.4819ZM1039.42 79.4229C1041.87 77.0362 1045.75 75.6791 1049.36 76.5214C1052.07 77.2234 1054.73 78.7677 1055.9 81.1076C1058.23 85.1321 1056.43 90.5606 1051.86 92.6665C1047.81 94.632 1042.72 93.6961 1039.64 90.8414C1036.5 87.706 1036.28 82.5583 1039.42 79.4229Z" fill="url(#paint1_radial_0_1)" stroke="#FCD109" stroke-width="0.094"/>
<path d="M1052.96 129.986C1053.71 130.126 1049.09 126.08 1049.99 125.893C1050.84 125.986 1054.07 123.783 1057.96 125.581C1061.86 127.379 1060.9 131.586 1060.45 133.146C1059.93 135.003 1058.58 136.188 1057.52 137.124C1056.94 137.545 1055.62 138.2 1054.83 138.154C1055.31 135.861 1053.76 135.486 1053.66 133.146L1052.96 129.986Z" fill="url(#paint2_linear_0_1)" stroke="#FCD109" stroke-width="0.094"/>
<path d="M883.111 132.522C883.004 134.862 881.463 135.237 881.942 137.53C881.145 137.577 879.832 136.921 879.248 136.5C878.185 135.564 876.846 134.379 876.32 132.522C875.879 130.963 874.912 126.755 878.807 124.957C882.701 123.158 885.927 125.362 886.777 125.269C887.68 125.456 883.063 129.502 883.807 129.362L883.111 132.522Z" fill="url(#paint3_linear_0_1)" stroke="#FCD109" stroke-width="0.094"/>
<path d="M1046.01 159.964C1046.8 159.353 1047.34 159.353 1048.4 159.353C1042.02 171.52 1034.58 183.687 1023.4 193.161C1022.2 194.101 1020.94 194.973 1019.62 195.771C1018.34 196.596 1017.08 197.37 1015.84 198.159C1014.62 198.906 1013.4 199.658 1012.21 200.441C1009.19 201.892 1006.53 203.905 1003.18 204.794C997.071 207.367 990.488 209.099 983.846 210.316C981.243 210.69 978.586 211.252 975.929 211.298C972.635 212.141 969.128 211.532 965.781 211.72C963.921 212 962.269 211.064 960.468 211.252C958.9 211.056 957.333 210.822 955.781 210.549C954.203 210.266 952.636 209.938 951.084 209.567C926.723 202.874 902.813 186.495 895.847 164.344C895.533 162.852 895.379 161.338 895.374 159.821C896.118 161.131 896.888 162.432 897.69 163.721C907.595 182.752 927.254 197.727 950.484 202.242C952.365 202.999 954.405 202.734 956.217 203.389C957.864 203.389 959.458 203.342 961.052 203.81C966.525 203.903 971.998 203.857 977.47 203.857C978.209 203.904 978.9 203.576 979.649 203.436C988.767 203.164 997.704 200.973 1006.02 197.65C1007.69 196.985 1009.33 196.275 1010.94 195.527C1012.35 194.873 1013.73 194.164 1015.07 193.403C1016.39 192.656 1017.67 191.861 1018.9 191.018C1028.74 184.155 1037.24 175.264 1043.02 165.039C1044.12 163.199 1045.12 161.495 1046.01 159.964Z" fill="#BDA727" stroke="#BDA727" stroke-width="0.094"/>
<path d="M1037.35 201.564C1053.13 193.421 1071.4 189.49 1089.58 188.742C1095.47 188.274 1101.43 188.414 1107.27 189.069C1111.1 189.865 1115.03 190.801 1118.06 193.094C1116.52 193.187 1115.03 192.579 1113.49 192.392C1109.13 191.643 1104.61 191.924 1100.2 191.83C1087.4 191.83 1074.49 192.719 1062.11 195.808C1055.62 197.539 1049.14 199.552 1043.24 202.547C1033.04 207.507 1023.85 214.059 1016.41 221.921C1003.13 235.352 995.318 252.386 991.545 269.748C989.739 279.06 987.667 288.325 986.02 297.685C983.363 297.919 980.653 297.779 977.996 297.779C966.307 297.732 954.618 297.685 942.928 297.593C940.431 297.685 937.987 297.172 935.49 297.311C914.236 297.404 892.983 297.264 871.729 297.264L872.154 297.123C887.935 295.672 903.769 294.034 919.55 292.678C939.581 292.584 959.559 292.63 979.59 292.678C980.228 292.584 981.344 292.864 981.45 292.069C983.097 284.488 984.691 276.907 986.338 269.325C988.623 258.797 992.236 248.408 997.815 238.814C1006.58 223.371 1020.45 210.268 1037.35 201.564Z" fill="#0D69B3" stroke="#0D69B3" stroke-width="0.094"/>
<path d="M1062.11 195.808C1074.49 192.719 1087.4 191.83 1100.21 191.83C1104.62 191.924 1109.14 191.643 1113.49 192.392C1115.03 192.579 1116.52 193.187 1118.06 193.094C1120.56 194.872 1122.05 197.493 1123.16 200.113C1125.61 206.337 1126.99 212.795 1128.16 219.3C1128.21 221.921 1128.74 224.869 1127.15 227.256C1125.66 229.596 1122.68 230.719 1119.87 231.421C1109.61 233.761 1098.88 231.561 1088.63 233.761C1080.18 235.352 1072.31 239.469 1066.95 245.413C1060.62 252.339 1057.28 260.949 1055.42 269.561C1053.98 277.235 1052.18 284.91 1050.74 292.631C1050.1 294.363 1049.73 296.235 1049.36 298.061C1059.4 298.202 1069.44 298.061 1079.49 298.154C1083.31 298.061 1087.13 298.247 1090.96 298.013C1093.09 302.319 1092.61 307.186 1091.92 311.725C1091.07 316.826 1089.69 321.88 1087.08 326.559C1084.9 330.537 1081.29 334.188 1076.35 335.592C1073.8 336.481 1071.04 336.294 1068.33 336.294C1059.4 336.294 1050.47 336.387 1041.55 336.294C1040.11 342.05 1039.16 347.946 1037.88 353.796C1035.55 365.167 1033.26 376.586 1030.92 388.005C1030.87 388.38 1030.82 389.175 1030.82 389.596V389.643C1007.6 389.643 984.431 389.69 961.212 389.643C961.265 389.456 961.318 389.128 961.371 388.941C961.424 388.707 961.477 388.192 961.53 387.912C961.583 388.287 961.637 388.988 961.69 389.316C963.124 389.456 965.728 390.111 966.1 388.287C969.713 371.065 973.06 353.75 976.78 336.528C975.345 336.247 973.857 336.247 972.37 336.481C972.157 337.136 971.944 337.791 971.679 338.446L971.998 336.34C957.545 336.292 943.04 336.34 928.588 336.292C925.081 336.2 921.468 336.292 917.961 335.918C911.957 335.684 905.9 335.872 899.895 335.356C892.457 335.356 885.071 334.748 877.633 334.748C871.788 334.234 865.89 334.42 859.992 334.186C856.167 333.766 852.235 333.952 848.356 333.813C842.033 333.204 835.604 333.626 829.281 333.016C822.586 333.064 815.891 332.549 809.197 332.409C809.25 332.362 809.303 332.175 809.303 332.128C811.534 332.175 813.713 332.034 815.945 331.987C820.886 331.426 825.881 331.8 830.822 331.192C835.976 331.192 841.077 330.583 846.231 330.583C850.8 330.022 855.423 330.349 859.992 329.788C865.359 329.788 870.619 329.179 875.985 329.133C880.395 328.618 884.859 328.899 889.269 328.384C894.423 328.431 899.524 327.729 904.677 327.775C909.725 327.259 914.879 327.4 919.927 326.932C919.449 325.201 919.077 323.47 918.652 321.738C918.28 320.661 916.792 320.895 915.835 320.755C904.306 319.303 892.829 317.853 881.352 316.449C882.096 315.934 883.105 316.168 883.955 316.075C892.882 315.466 901.755 314.764 910.682 314.203C912.701 314.109 914.667 313.782 916.686 313.735C915.782 311.302 915.251 308.635 914.029 306.388C894.954 303.814 875.879 301.521 856.857 298.76C861.799 298.058 866.793 297.73 871.735 297.262C892.988 297.262 914.241 297.403 935.495 297.309C937.992 297.169 940.436 297.684 942.934 297.591C954.623 297.684 966.312 297.732 978.002 297.777C980.658 297.777 983.368 297.918 986.025 297.684C987.672 288.325 989.744 279.058 991.551 269.746C995.323 252.384 1003.13 235.35 1016.42 221.92C1023.86 214.058 1033.05 207.506 1043.25 202.545C1049.15 199.552 1055.63 197.539 1062.11 195.808Z" fill="#107BD4" stroke="#107BD4" stroke-width="0.094"/>
<path d="M1050.74 292.631C1060.83 292.679 1070.99 292.584 1081.13 292.679C1085.17 292.679 1089.31 294.644 1090.96 298.013C1087.13 298.247 1083.31 298.061 1079.48 298.154C1069.44 298.061 1059.4 298.202 1049.35 298.061C1049.73 296.235 1050.1 294.363 1050.74 292.631ZM972.364 336.481C973.852 336.247 975.345 336.247 976.774 336.528C973.055 353.75 969.708 371.065 966.094 388.287C965.723 390.111 963.119 389.456 961.684 389.316C961.631 388.988 961.578 388.287 961.525 387.912C964.872 371.439 968.114 354.92 971.673 338.447C971.939 337.791 972.152 337.137 972.364 336.481Z" fill="#0D69B3" stroke="#0D69B3" stroke-width="0.094"/>
<path d="M1055.39 131.296C1054.96 130.594 1054.91 129.752 1054.91 128.956L1054.48 129.003C1053.84 126.944 1051.88 124.978 1049.33 124.885C1047.42 124.744 1045.02 124.791 1043.91 126.382C1041.78 128.909 1042.79 132.138 1042.69 134.993C1042.69 135.18 1042.74 135.508 1042.74 135.695C1042.74 137.614 1042.47 139.485 1042.1 141.357C1041.78 141.919 1041.62 142.527 1041.62 143.182C1040.73 147.581 1038.91 151.934 1036.48 155.911C1036 156.473 1035.62 157.081 1035.47 157.736C1033.87 160.17 1031.96 162.416 1029.99 164.662C1029.67 164.896 1029.4 165.177 1029.14 165.458C1027.76 166.956 1026.27 168.219 1024.73 169.529C1024.36 169.717 1024.09 169.951 1023.77 170.138C1021.96 171.682 1019.95 173.133 1017.77 174.303C1017.5 174.443 1017.24 174.63 1016.92 174.817C1003.31 182.726 986.79 186.002 970.69 186.142C957.035 186.517 943.274 183.943 930.947 178.748C930.734 178.655 930.203 178.468 929.99 178.374C927.918 177.391 925.793 176.549 923.88 175.332C923.455 175.145 923.03 174.911 922.552 174.724C920.586 173.694 918.726 172.571 916.973 171.261C916.388 170.793 915.751 170.419 915.113 169.997C913.2 168.64 911.234 167.19 909.587 165.552C909.162 165.13 908.737 164.756 908.312 164.382C902.526 159.094 898.009 152.636 895.618 145.616C893.328 140.047 893.652 133.963 893.387 128.114C891.468 125.54 887.436 124.089 884.248 125.68C882.919 126.523 882.76 128.067 881.75 129.143C880.103 144.586 887.595 159.983 899.55 171.12C899.55 171.495 899.763 171.729 900.134 171.869C902.26 173.601 904.332 175.379 906.457 177.064C906.829 177.391 907.254 177.719 907.733 178C909.858 179.544 912.143 180.948 914.374 182.399C914.799 182.679 915.224 182.913 915.703 183.147C918.625 184.645 921.383 186.423 924.523 187.453C924.735 187.593 925.107 187.827 925.32 187.921C935.415 192.179 946.308 195.081 957.466 196.017C958.688 196.017 959.91 196.11 961.132 196.344C966.445 196.625 971.758 196.485 977.072 196.391C993.485 195.128 1010.44 191.618 1024.15 183.101L1024.31 183.288C1024.73 182.96 1025.1 182.679 1025.53 182.399C1027.71 180.995 1029.83 179.497 1031.96 177.953C1032.44 177.625 1032.97 177.251 1033.45 176.83C1035.78 174.583 1038.49 172.524 1040.46 169.951L1040.78 170.091C1040.94 169.857 1041.2 169.389 1041.36 169.155C1043.17 167.002 1044.82 164.756 1046.41 162.51C1046.52 162.369 1046.78 162.135 1046.89 161.995L1046.68 161.808C1046.84 161.621 1047.21 161.246 1047.37 161.059C1050.29 155.818 1052.89 150.342 1053.8 144.54C1054.17 144.399 1054.38 144.118 1054.38 143.791C1054.43 141.919 1055.18 140.141 1054.97 138.269C1055.44 135.976 1055.49 133.636 1055.39 131.296Z" fill="white" stroke="white" stroke-width="0.094"/>
<path d="M1056.55 128.779C1048.21 129.219 1040.39 126.707 1032.81 124.412M877.664 129.715C881.973 130.905 891.867 127.911 894.667 130.651L877.664 129.715ZM880.146 141.258C884.274 139.993 893.121 136.998 896.792 138.762L880.146 141.258ZM884.396 152.802C886.389 153.371 890.326 150.283 892.276 149.379C895.182 148.033 898.163 147.001 901.399 146.562L884.396 152.802ZM890.772 164.969C892.829 162.393 895.294 160.254 898.264 158.424C901.213 156.611 909.273 151.767 912.732 153.425L890.772 164.969ZM896.792 173.705C899.13 172.069 900.081 169.176 902.531 167.458C905.501 165.379 910.044 165.006 913.089 163.721L896.792 173.705ZM906.797 180.178C907.499 175.653 912.717 170.193 917.69 170.584L906.797 180.178ZM914.502 186.496C917.132 186.264 919.358 181.078 921.138 179.321C923.805 176.689 926.563 175.879 930.091 174.952L914.502 186.496ZM929.735 192.111C929.565 188.838 933.407 179.45 937.881 179.944L929.735 192.111ZM941.069 195.231C940.883 191.362 943.157 179.724 948.507 179.32L941.069 195.231ZM952.758 201.471C951.743 196.06 951.812 188.233 956.658 184.312L952.758 201.471ZM967.285 202.719C966.743 198.209 961.652 189.091 967.285 185.56V202.719ZM982.869 199.599C980.44 197.118 979.027 187.333 980.037 184.624L982.869 199.599ZM997.746 197.415C995.87 194.419 993.548 191.605 992.842 188.126C992.417 186.047 993.161 183.086 992.789 181.504L997.746 197.415ZM1010.14 192.735C1006.08 190.394 1004.95 181.789 1006.25 178.072L1010.14 192.735ZM1022.19 188.056C1019.3 182.594 1016.22 178.359 1016.17 172.144L1022.19 188.056ZM1033.88 178.072C1029.39 175.411 1023.65 170.573 1024.31 165.281L1033.88 178.072ZM1046.27 169.649C1039.45 168.317 1031.26 162.938 1027.14 158.105L1046.27 169.649ZM1051.94 159.353C1047.02 158.423 1030.75 152.833 1031.75 147.186L1051.94 159.353ZM1057.26 148.434C1050.4 146.219 1040.42 144.228 1034.94 140.011L1057.26 148.434ZM1060.8 138.45C1056.47 138.776 1050.28 136.934 1045.9 136.266C1041.02 135.525 1036.5 134.078 1031.75 133.146L1060.8 138.45Z" stroke="#D1D1D1" stroke-width="2"/>
</g>
<path d="M39.76 208.48H71.632V217.44H39.76V208.48ZM67.792 208.48H77.136C77.136 208.48 77.136 211.296 77.136 212.576C76.496 241.504 75.728 252.256 73.04 255.84C70.992 258.144 68.944 259.04 65.36 259.424C62.032 259.808 56.272 259.68 50 259.424C49.744 256.608 48.72 252.896 47.312 250.464C53.072 250.976 58.704 250.976 60.88 250.976C62.672 250.976 63.952 250.848 64.848 249.696C66.768 247.392 67.408 237.792 67.792 210.144V208.48ZM103.888 167.008L109.648 160.992C117.584 165.088 127.696 171.232 132.688 175.712L126.672 182.24C121.808 177.76 111.952 171.232 103.888 167.008ZM122.192 201.696L131.792 204C120.912 237.408 101.84 262.112 75.6 277.6C74.192 275.68 70.608 271.712 68.56 269.792C94.544 255.968 112.592 232.544 122.192 201.696ZM40.528 182.24H139.6V191.712H40.528V182.24ZM34.384 182.24H44.368V218.336C44.368 236.512 42.32 262.368 30.672 279.136C29.008 277.216 24.912 273.888 22.608 272.736C33.232 256.992 34.384 234.976 34.384 218.208V182.24ZM87.504 160.736H97.488C97.232 219.616 109.776 267.616 126.416 267.616C130 267.616 131.664 260.96 132.432 243.936C134.608 246.112 138.192 248.288 140.752 249.184C138.96 271.072 135.376 277.344 125.648 277.344C99.536 277.344 88.016 222.048 87.504 160.736ZM157.264 175.456H202.064V183.904H157.264V175.456ZM170.832 261.984H206.672V270.176H170.832V261.984ZM170.704 240.736H206.8V248.416H170.704V240.736ZM151.504 199.264H217.68V207.84H151.504V199.264ZM177.104 161.632H186.064V204.768H177.104V161.632ZM211.024 164.96L219.728 167.52C205.648 199.52 182.864 224.096 154.704 239.584C153.552 237.536 150.48 233.696 148.688 231.776C176.464 217.952 198.352 194.656 211.024 164.96ZM173.776 220.256H206.416V228.32H173.776V277.728H164.944V225.888L170.32 220.256H173.776ZM202.576 220.256H211.92V275.936H202.576V220.256ZM223.056 167.904H261.328V176.864H232.656V278.24H223.056V167.904ZM258.896 167.904H260.816L262.352 167.392L269.264 171.872C263.888 183.904 256.976 198.752 250.704 210.528C264.144 222.432 267.6 232.544 267.6 241.76C267.728 249.696 265.808 255.584 261.072 258.656C258.768 260.192 255.824 261.088 252.496 261.472C249.04 261.856 244.432 261.856 240.464 261.6C240.336 259.04 239.184 254.816 237.648 252.256C241.744 252.64 245.584 252.768 248.4 252.512C250.704 252.384 252.88 251.872 254.416 250.976C257.488 249.312 258.384 245.6 258.384 240.864C258.384 232.8 254.288 223.072 240.72 211.936C247.632 198.624 254.8 181.216 258.896 170.848V167.904ZM278.992 228.832H341.84V236.896H278.992V228.832ZM279.76 184.16H341.456V191.968H279.76V184.16ZM302.8 217.824L311.76 219.744C306 232.288 297.936 247.904 292.048 258.016L283.6 255.072C289.36 245.344 297.424 229.6 302.8 217.824ZM322 233.568L330.96 234.72C326.608 259.68 313.168 271.968 283.6 278.24C282.96 275.68 281.04 272.224 279.248 270.304C306 265.824 318.032 255.328 322 233.568ZM330.064 163.04L338.256 166.624C334.544 172.512 330.32 178.912 326.736 183.264L320.336 180.064C323.536 175.456 327.76 168.032 330.064 163.04ZM306.256 160.48H315.088V219.36H306.256V160.48ZM284.496 166.624L291.792 163.552C295.376 168.672 298.832 175.456 300.112 180.064L292.56 183.52C291.408 178.912 288.08 171.872 284.496 166.624ZM306.384 187.616L312.912 191.456C306.64 202.208 294.608 213.6 283.6 219.616C282.448 217.44 280.144 214.24 278.352 212.32C288.976 207.712 300.752 197.472 306.384 187.616ZM314.064 192.096C318.672 194.528 334.288 204.384 338 207.072L332.752 214.112C328.144 209.76 314.832 199.776 309.456 196.192L314.064 192.096ZM351.184 184.16H396.752V193.12H351.184V184.16ZM354.384 160.48L364.112 161.888C359.888 186.976 352.336 209.888 341.072 224.864C339.536 223.072 335.568 219.872 333.264 218.336C344.144 204.768 350.8 183.136 354.384 160.48ZM379.6 189.28L389.328 190.304C383.184 234.464 369.616 261.984 337.36 278.624C336.336 276.32 333.52 272.096 331.6 270.048C362.064 255.712 374.352 229.856 379.6 189.28ZM356.304 192.096C361.936 227.296 374.224 257.504 398.032 270.048C395.728 271.968 392.656 275.68 391.248 278.24C366.16 263.52 354 232.288 347.6 193.504L356.304 192.096ZM291.28 253.28L296.4 246.752C311.76 252.64 327.632 261.088 336.848 268.128L330.192 275.04C321.36 267.872 306.128 259.296 291.28 253.28ZM426.96 225.504H505.808V277.984H495.952V233.44H436.304V278.24H426.96V225.504ZM432.336 245.472H499.536V252.896H432.336V245.472ZM422.096 171.104H462.928V178.912H422.096V171.104ZM408.272 191.2H466.256V199.008H408.272V191.2ZM432.336 265.568H499.536V273.504H432.336V265.568ZM434.896 173.92H444.112V186.592C444.112 199.008 440.4 216.16 413.264 228.32C411.984 226.4 409.296 223.328 407.12 221.792C432.976 211.552 434.896 196.576 434.896 186.464V173.92ZM422.736 160.096L431.44 161.888C428.112 172.896 422.224 183.52 415.952 190.56C414.288 189.28 410.448 186.848 408.272 185.952C414.8 179.424 419.92 169.824 422.736 160.096ZM441.296 200.928C445.904 203.36 461.52 212.832 465.232 215.392L458.576 222.048C453.84 218.08 440.528 208.608 435.024 205.152L441.296 200.928ZM480.592 179.552V206.816H507.216V179.552H480.592ZM471.632 170.976H516.688V215.648H471.632V170.976ZM576.464 166.752H651.6V175.584H576.464V166.752ZM573.264 166.752H582.608V201.952C582.608 224.224 580.432 256.352 565.328 277.856C563.536 276.192 559.568 273.632 557.264 272.736C571.856 252.128 573.264 223.072 573.264 201.952V166.752ZM598.736 215.136V226.4H637.776V215.136H598.736ZM598.736 196.96V208.096H637.776V196.96H598.736ZM590.032 189.536H646.736V233.824H590.032V189.536ZM594.512 240.992L603.216 243.04C599.248 253.408 592.848 264.032 586.576 270.944C584.784 269.536 581.072 267.104 579.024 265.952C585.296 259.424 591.056 250.208 594.512 240.992ZM630.736 243.296L639.056 239.84C644.944 247.776 651.6 258.4 654.16 265.44L645.456 269.408C643.024 262.368 636.752 251.36 630.736 243.296ZM613.584 173.664L623.952 175.712C622.032 182.368 619.984 189.792 618.192 194.656L609.744 192.608C611.152 187.36 612.944 179.168 613.584 173.664ZM613.072 230.88H622.16V268.256C622.16 272.992 621.392 275.552 617.808 276.832C614.352 278.24 608.848 278.368 600.272 278.24C599.888 275.808 598.736 272.352 597.584 269.92C603.728 270.176 609.232 270.048 610.896 270.048C612.56 269.92 613.072 269.536 613.072 268.128V230.88ZM541.008 168.672L546.512 161.76C554.192 165.344 563.536 171.104 568.016 175.584L562.256 183.264C557.904 178.656 548.688 172.512 541.008 168.672ZM534.736 203.232L540.24 196.064C547.92 199.392 557.264 204.768 562 208.992L556.368 216.8C551.888 212.448 542.544 206.688 534.736 203.232ZM537.424 271.072C543.184 261.088 551.12 244.192 556.88 229.728L564.688 235.104C559.312 248.672 552.144 264.544 546 276.448L537.424 271.072Z" fill="#107BD4"/>
<defs>
<linearGradient id="paint0_linear_0_1" x1="968.459" y1="114.942" x2="968.459" y2="390" gradientUnits="userSpaceOnUse">
<stop stop-color="#F7E830"/>
<stop offset="1" stop-color="#FDCB06"/>
</linearGradient>
<radialGradient id="paint1_radial_0_1" cx="0" cy="0" r="1" gradientUnits="userSpaceOnUse" gradientTransform="translate(966.833 240.396) scale(254.02 223.729)">
<stop offset="0.596" stop-color="#F29405"/>
<stop offset="0.736" stop-color="#F7D01E"/>
<stop offset="1" stop-color="#FDCB06"/>
</radialGradient>
<linearGradient id="paint2_linear_0_1" x1="1055.36" y1="124.869" x2="1055.43" y2="137.894" gradientUnits="userSpaceOnUse">
<stop stop-color="#FADA1C"/>
<stop offset="1" stop-color="#FDCB06"/>
</linearGradient>
<linearGradient id="paint3_linear_0_1" x1="881.41" y1="124.245" x2="881.34" y2="137.27" gradientUnits="userSpaceOnUse">
<stop stop-color="#FADA1C"/>
<stop offset="1" stop-color="#FDCB06"/>
</linearGradient>
</defs>
</svg>
