<svg width="1384" height="347" viewBox="0 0 1384 347" fill="none" xmlns="http://www.w3.org/2000/svg">
<path d="M835.047 183.103H844.775V226.751C844.775 251.199 842.983 275.775 826.215 294.847C824.423 292.799 820.583 289.727 818.151 288.191C833.255 270.911 835.047 248.767 835.047 226.623V183.103ZM875.751 188.351H885.351V282.559H875.751V188.351ZM918.759 182.719H928.743V293.695H918.759V182.719ZM950.631 212.927H1063.14V222.655H950.631V212.927ZM1012.97 216.767C1021.29 247.743 1038.7 273.599 1065.32 284.607C1062.89 286.783 1059.69 290.879 1058.02 293.567C1030.38 280.511 1012.97 253.503 1003.37 219.071L1012.97 216.767ZM1001.7 176.191H1012.07C1011.56 209.727 1011.3 268.095 955.367 293.695C953.831 291.135 950.759 287.679 948.071 285.759C1002.47 262.079 1001.45 206.911 1001.7 176.191ZM1095.66 241.087H1174.5V293.567H1164.65V249.023H1105V293.823H1095.66V241.087ZM1101.03 261.055H1168.23V268.479H1101.03V261.055ZM1090.79 186.687H1131.62V194.495H1090.79V186.687ZM1076.97 206.783H1134.95V214.591H1076.97V206.783ZM1101.03 281.151H1168.23V289.087H1101.03V281.151ZM1103.59 189.503H1112.81V202.175C1112.81 214.591 1109.1 231.743 1081.96 243.903C1080.68 241.983 1077.99 238.911 1075.82 237.375C1101.67 227.135 1103.59 212.159 1103.59 202.047V189.503ZM1091.43 175.679L1100.14 177.471C1096.81 188.479 1090.92 199.103 1084.65 206.143C1082.98 204.863 1079.14 202.431 1076.97 201.535C1083.5 195.007 1088.62 185.407 1091.43 175.679ZM1109.99 216.511C1114.6 218.943 1130.22 228.415 1133.93 230.975L1127.27 237.631C1122.54 233.663 1109.22 224.191 1103.72 220.735L1109.99 216.511ZM1149.29 195.135V222.399H1175.91V195.135H1149.29ZM1140.33 186.559H1185.38V231.231H1140.33V186.559ZM1215.98 180.799H1242.09V189.631H1215.98V180.799ZM1215.46 210.879H1240.42V219.711H1215.46V210.879ZM1215.34 241.599H1240.55V250.559H1215.34V241.599ZM1211.11 180.799H1219.82V226.751C1219.82 246.719 1218.66 275.007 1210.09 293.951C1208.42 292.415 1204.46 290.239 1202.28 289.471C1210.47 271.423 1211.11 245.695 1211.11 226.879V180.799ZM1237.48 180.799H1246.44V281.791C1246.44 286.655 1245.29 289.599 1242.22 291.135C1239.02 292.799 1234.28 292.927 1226.09 292.927C1225.7 290.495 1224.55 286.271 1223.27 283.839C1228.9 283.967 1233.77 283.967 1235.3 283.967C1236.97 283.839 1237.48 283.199 1237.48 281.535V180.799ZM1261.93 182.719L1270.89 184.383C1267.82 203.199 1262.44 221.503 1255.27 233.663C1253.48 232.383 1249.38 229.951 1247.08 228.799C1254.5 217.535 1259.11 200.127 1261.93 182.719ZM1281.64 177.343H1290.98V286.911H1281.64V177.343ZM1256.04 241.855H1316.71V250.815H1256.04V241.855ZM1250.66 281.023H1321.58V290.239H1250.66V281.023ZM1262.57 204.479H1318.76V213.567H1258.98L1262.57 204.479Z" fill="white"/>
<mask id="mask0_25_138" style="mask-type:luminance" maskUnits="userSpaceOnUse" x="233" y="0" width="961" height="284">
<path d="M1193.95 0H233V283.556H1193.95V0Z" fill="white"/>
</mask>
<g mask="url(#mask0_25_138)">
<path d="M783.969 223.74V231.995C783.969 233.808 782.519 235.247 780.693 235.247H741.057C741.057 237.31 741.12 239.124 741.12 240.812C741.12 253.007 740.616 262.95 739.419 274.143C739.229 275.832 737.843 277.082 736.205 277.082H727.635C726.753 277.082 725.934 276.707 725.366 276.082C724.799 275.456 724.484 274.581 724.611 273.706C725.808 262.575 726.375 252.756 726.375 240.812C726.375 239.061 726.375 237.248 726.312 235.247H687.117C685.289 235.247 683.841 233.808 683.841 231.995V223.74C683.841 221.926 685.289 220.489 687.117 220.489H725.744C724.925 207.043 723.287 194.098 720.641 180.966C720.514 180.153 720.704 179.34 721.207 178.714C721.711 178.09 722.467 177.714 723.287 177.714H732.549C733.999 177.714 735.196 178.714 735.512 180.153C738.095 193.723 739.733 206.918 740.552 220.489H780.693C782.456 220.489 783.969 221.989 783.969 223.74Z" fill="white"/>
<path d="M814.787 152.901C794.315 112.03 759.731 77.1954 714.755 52.1306C668.707 26.5031 614.723 12.9478 558.659 12.9478C465.934 12.9478 379.886 50.3403 328.547 113.002C327.98 113.667 327.854 114.537 328.169 115.304C328.484 116.123 329.24 116.685 330.185 116.941L337.366 118.936C337.807 119.039 338.248 119.09 338.626 119.09C339.948 119.09 341.208 118.527 341.964 117.657C365.523 89.5231 397.398 66.1463 434.186 49.9822C472.171 33.3065 515.194 24.457 558.596 24.457C611.069 24.457 661.652 37.0406 704.992 60.7753C747.259 83.9474 780.078 116.327 799.921 154.333C800.488 155.459 801.874 156.226 803.385 156.226H811.953C812.96 156.226 813.906 155.817 814.409 155.152C815.04 154.487 815.165 153.668 814.787 152.901ZM338.626 117.35H338.751C338.751 117.35 338.689 117.35 338.626 117.35ZM801.622 155.305C801.81 155.407 802 155.51 802.188 155.561C802 155.459 801.81 155.407 801.622 155.305Z" fill="url(#paint0_radial_25_138)"/>
</g>
<path d="M119.467 283.583L94.0124 190.492H105.467L124.921 266.31H125.831L145.649 190.492H158.376L178.194 266.31H179.103L198.558 190.492H210.012L184.558 283.583H172.921L152.376 209.401H151.649L131.103 283.583H119.467ZM222.603 283.583V213.765H233.331V283.583H222.603ZM228.058 202.128C225.967 202.128 224.164 201.416 222.649 199.992C221.164 198.568 220.421 196.856 220.421 194.856C220.421 192.856 221.164 191.143 222.649 189.719C224.164 188.295 225.967 187.583 228.058 187.583C230.149 187.583 231.937 188.295 233.421 189.719C234.937 191.143 235.694 192.856 235.694 194.856C235.694 196.856 234.937 198.568 233.421 199.992C231.937 201.416 230.149 202.128 228.058 202.128ZM302.433 229.401L292.796 232.128C292.19 230.522 291.296 228.962 290.115 227.447C288.963 225.901 287.387 224.628 285.387 223.628C283.387 222.628 280.827 222.128 277.706 222.128C273.433 222.128 269.872 223.113 267.024 225.083C264.206 227.022 262.796 229.492 262.796 232.492C262.796 235.159 263.766 237.265 265.706 238.81C267.645 240.356 270.675 241.643 274.796 242.674L285.16 245.219C291.403 246.734 296.054 249.053 299.115 252.174C302.175 255.265 303.706 259.25 303.706 264.128C303.706 268.128 302.554 271.704 300.251 274.856C297.978 278.007 294.796 280.492 290.706 282.31C286.615 284.128 281.857 285.037 276.433 285.037C269.312 285.037 263.418 283.492 258.751 280.401C254.084 277.31 251.13 272.795 249.887 266.856L260.069 264.31C261.039 268.068 262.872 270.886 265.569 272.765C268.296 274.643 271.857 275.583 276.251 275.583C281.251 275.583 285.221 274.522 288.16 272.401C291.13 270.25 292.615 267.674 292.615 264.674C292.615 262.25 291.766 260.219 290.069 258.583C288.372 256.916 285.766 255.674 282.251 254.856L270.615 252.128C264.221 250.613 259.524 248.265 256.524 245.083C253.554 241.871 252.069 237.856 252.069 233.037C252.069 229.098 253.175 225.613 255.387 222.583C257.63 219.553 260.675 217.174 264.524 215.447C268.403 213.719 272.796 212.856 277.706 212.856C284.615 212.856 290.039 214.371 293.978 217.401C297.948 220.431 300.766 224.431 302.433 229.401ZM349.126 285.037C342.399 285.037 336.596 283.553 331.717 280.583C326.868 277.583 323.126 273.401 320.49 268.037C317.884 262.643 316.581 256.371 316.581 249.219C316.581 242.068 317.884 235.765 320.49 230.31C323.126 224.825 326.793 220.553 331.49 217.492C336.217 214.401 341.732 212.856 348.035 212.856C351.671 212.856 355.262 213.462 358.808 214.674C362.353 215.886 365.581 217.856 368.49 220.583C371.399 223.28 373.717 226.856 375.444 231.31C377.171 235.765 378.035 241.25 378.035 247.765V252.31H324.217V243.037H367.126C367.126 239.098 366.338 235.583 364.762 232.492C363.217 229.401 361.005 226.962 358.126 225.174C355.278 223.386 351.914 222.492 348.035 222.492C343.762 222.492 340.065 223.553 336.944 225.674C333.853 227.765 331.474 230.492 329.808 233.856C328.141 237.219 327.308 240.825 327.308 244.674V250.856C327.308 256.128 328.217 260.598 330.035 264.265C331.884 267.901 334.444 270.674 337.717 272.583C340.99 274.462 344.793 275.401 349.126 275.401C351.944 275.401 354.49 275.007 356.762 274.219C359.065 273.401 361.05 272.189 362.717 270.583C364.384 268.947 365.671 266.916 366.581 264.492L376.944 267.401C375.853 270.916 374.02 274.007 371.444 276.674C368.868 279.31 365.687 281.371 361.899 282.856C358.111 284.31 353.853 285.037 349.126 285.037ZM443.808 229.401L434.171 232.128C433.565 230.522 432.671 228.962 431.49 227.447C430.338 225.901 428.762 224.628 426.762 223.628C424.762 222.628 422.202 222.128 419.081 222.128C414.808 222.128 411.247 223.113 408.399 225.083C405.581 227.022 404.171 229.492 404.171 232.492C404.171 235.159 405.141 237.265 407.081 238.81C409.02 240.356 412.05 241.643 416.171 242.674L426.535 245.219C432.778 246.734 437.429 249.053 440.49 252.174C443.55 255.265 445.081 259.25 445.081 264.128C445.081 268.128 443.929 271.704 441.626 274.856C439.353 278.007 436.171 280.492 432.081 282.31C427.99 284.128 423.232 285.037 417.808 285.037C410.687 285.037 404.793 283.492 400.126 280.401C395.459 277.31 392.505 272.795 391.262 266.856L401.444 264.31C402.414 268.068 404.247 270.886 406.944 272.765C409.671 274.643 413.232 275.583 417.626 275.583C422.626 275.583 426.596 274.522 429.535 272.401C432.505 270.25 433.99 267.674 433.99 264.674C433.99 262.25 433.141 260.219 431.444 258.583C429.747 256.916 427.141 255.674 423.626 254.856L411.99 252.128C405.596 250.613 400.899 248.265 397.899 245.083C394.929 241.871 393.444 237.856 393.444 233.037C393.444 229.098 394.55 225.613 396.762 222.583C399.005 219.553 402.05 217.174 405.899 215.447C409.778 213.719 414.171 212.856 419.081 212.856C425.99 212.856 431.414 214.371 435.353 217.401C439.323 220.431 442.141 224.431 443.808 229.401ZM489.592 285.037C483.289 285.037 477.759 283.537 473.001 280.537C468.274 277.537 464.577 273.34 461.91 267.947C459.274 262.553 457.956 256.25 457.956 249.037C457.956 241.765 459.274 235.416 461.91 229.992C464.577 224.568 468.274 220.356 473.001 217.356C477.759 214.356 483.289 212.856 489.592 212.856C495.895 212.856 501.41 214.356 506.137 217.356C510.895 220.356 514.592 224.568 517.228 229.992C519.895 235.416 521.228 241.765 521.228 249.037C521.228 256.25 519.895 262.553 517.228 267.947C514.592 273.34 510.895 277.537 506.137 280.537C501.41 283.537 495.895 285.037 489.592 285.037ZM489.592 275.401C494.38 275.401 498.319 274.174 501.41 271.719C504.501 269.265 506.789 266.037 508.274 262.037C509.759 258.037 510.501 253.704 510.501 249.037C510.501 244.371 509.759 240.022 508.274 235.992C506.789 231.962 504.501 228.704 501.41 226.219C498.319 223.734 494.38 222.492 489.592 222.492C484.804 222.492 480.865 223.734 477.774 226.219C474.683 228.704 472.395 231.962 470.91 235.992C469.425 240.022 468.683 244.371 468.683 249.037C468.683 253.704 469.425 258.037 470.91 262.037C472.395 266.037 474.683 269.265 477.774 271.719C480.865 274.174 484.804 275.401 489.592 275.401ZM568.694 213.765V222.856H531.058V213.765H568.694ZM542.331 283.583V204.128C542.331 200.128 543.27 196.795 545.149 194.128C547.028 191.462 549.467 189.462 552.467 188.128C555.467 186.795 558.634 186.128 561.967 186.128C564.603 186.128 566.755 186.34 568.421 186.765C570.088 187.189 571.331 187.583 572.149 187.947L569.058 197.219C568.512 197.037 567.755 196.81 566.785 196.537C565.846 196.265 564.603 196.128 563.058 196.128C559.512 196.128 556.952 197.022 555.376 198.81C553.831 200.598 553.058 203.219 553.058 206.674V283.583H542.331ZM614.092 213.765V222.856H577.91V213.765H614.092ZM588.456 197.037H599.183V263.583C599.183 266.613 599.622 268.886 600.501 270.401C601.41 271.886 602.562 272.886 603.956 273.401C605.38 273.886 606.88 274.128 608.456 274.128C609.637 274.128 610.607 274.068 611.365 273.947C612.122 273.795 612.728 273.674 613.183 273.583L615.365 283.219C614.637 283.492 613.622 283.765 612.319 284.037C611.016 284.34 609.365 284.492 607.365 284.492C604.334 284.492 601.365 283.84 598.456 282.537C595.577 281.234 593.183 279.25 591.274 276.583C589.395 273.916 588.456 270.553 588.456 266.492V197.037Z" fill="white"/>
<defs>
<radialGradient id="paint0_radial_25_138" cx="0" cy="0" r="1" gradientUnits="userSpaceOnUse" gradientTransform="translate(806.739 155.968) scale(478.822 388.823)">
<stop offset="0.007" stop-color="#021192"/>
<stop offset="0.03" stop-color="#021096"/>
<stop offset="0.057" stop-color="#010CB4"/>
<stop offset="0.084" stop-color="#0008CE"/>
<stop offset="0.111" stop-color="#0006D7"/>
<stop offset="0.138" stop-color="#0004E1"/>
<stop offset="0.165" stop-color="#0001FA"/>
<stop offset="0.191" stop-color="#0000FE"/>
<stop offset="0.216" stop-color="#0F1EFF"/>
<stop offset="1" stop-color="#00FFFF" stop-opacity="0"/>
</radialGradient>
</defs>
</svg>
