<svg width="644" height="32" viewBox="0 0 644 32" fill="none" xmlns="http://www.w3.org/2000/svg">
<g clip-path="url(#clip0_19_87)">
<mask id="mask0_19_87" style="mask-type:luminance" maskUnits="userSpaceOnUse" x="0" y="0" width="644" height="32">
<path d="M644 0H0V31.1111H644V0Z" fill="white"/>
</mask>
<g mask="url(#mask0_19_87)">
<path d="M0 12.4445C0 8.08848 0 5.9105 0.847727 4.24674C1.59341 2.78326 2.78326 1.59341 4.24674 0.847727C5.9105 0 8.08848 0 12.4444 0H631.555C635.911 0 638.089 0 639.753 0.847727C641.217 1.59341 642.407 2.78326 643.152 4.24674C644 5.9105 644 8.08848 644 12.4444V31.1111H0V12.4445Z" fill="#25334D"/>
<mask id="mask1_19_87" style="mask-type:luminance" maskUnits="userSpaceOnUse" x="556" y="5" width="76" height="20">
<path d="M631.556 5.44446H556.889V24.1112H631.556V5.44446Z" fill="white"/>
</mask>
<g mask="url(#mask1_19_87)">
<path d="M566.229 16.6239C566.557 16.6239 566.828 16.353 566.828 16.0305V9.54144L566.783 8.58679L567.176 9.05767L568.079 10.0188C568.182 10.1349 568.33 10.1929 568.478 10.1929C568.775 10.1929 569.02 9.98007 569.02 9.6769C569.02 9.51564 568.955 9.39953 568.846 9.28988L566.686 7.20641C566.532 7.0516 566.383 7 566.229 7C566.067 7 565.926 7.0516 565.771 7.20641L563.605 9.28988C563.496 9.39953 563.431 9.51564 563.431 9.6769C563.431 9.98007 563.67 10.1929 563.966 10.1929C564.114 10.1929 564.269 10.1349 564.372 10.0188L565.275 9.05767L565.674 8.58034L565.623 9.54144V16.0305C565.623 16.353 565.893 16.6239 566.229 16.6239ZM562.509 21.7778H569.935C571.334 21.7778 572.056 21.0553 572.056 19.675V13.3343C572.056 11.9539 571.334 11.2314 569.935 11.2314H568.195V12.5151H569.851C570.438 12.5151 570.773 12.8247 570.773 13.4439V19.5589C570.773 20.1781 570.438 20.4877 569.851 20.4877H562.593C562 20.4877 561.672 20.1781 561.672 19.5589V13.4439C561.672 12.8247 562 12.5151 562.593 12.5151H564.269V11.2314H562.509C561.117 11.2314 560.389 11.9474 560.389 13.3343V19.675C560.389 21.0553 561.117 21.7778 562.509 21.7778Z" fill="#B7B7B7"/>
<path d="M593.444 20.2223C593.854 20.2223 594.186 19.8896 594.186 19.5121V15.5072H598.154C598.551 15.5072 598.889 15.1809 598.889 14.7778C598.889 14.3812 598.551 14.0485 598.154 14.0485H594.186V10.0435C594.186 9.65966 593.854 9.33337 593.444 9.33337C593.041 9.33337 592.703 9.65966 592.703 10.0435V14.0485H588.735C588.351 14.0485 588 14.3812 588 14.7778C588 15.1809 588.351 15.5072 588.735 15.5072H592.703V19.5121C592.703 19.8896 593.041 20.2223 593.444 20.2223Z" fill="#B7B7B7"/>
<path d="M617.344 18.6938H618.44V19.6675C618.44 21.0475 619.169 21.7698 620.562 21.7698H627.101C628.493 21.7698 629.222 21.0475 629.222 19.6675V13.0834C629.222 11.7034 628.493 10.9812 627.101 10.9812H626.004V10.0139C626.004 8.63387 625.276 7.91162 623.883 7.91162H617.344C615.944 7.91162 615.222 8.63387 615.222 10.0139V16.5915C615.222 17.978 615.944 18.6938 617.344 18.6938ZM617.428 17.4105C616.834 17.4105 616.505 17.1009 616.505 16.4754V10.13C616.505 9.50444 616.834 9.20135 617.428 9.20135H623.799C624.386 9.20135 624.721 9.50444 624.721 10.13V10.9812H620.562C619.169 10.9812 618.44 11.7034 618.44 13.0834V17.4105H617.428ZM620.645 20.48C620.052 20.48 619.73 20.1705 619.73 19.5514V13.1995C619.73 12.5804 620.052 12.2709 620.645 12.2709H627.017C627.61 12.2709 627.939 12.5804 627.939 13.1995V19.5514C627.939 20.1705 627.61 20.48 627.017 20.48H620.645Z" fill="#B7B7B7"/>
</g>
<mask id="mask2_19_87" style="mask-type:luminance" maskUnits="userSpaceOnUse" x="74" y="5" width="77" height="20">
<path d="M150.889 5.44446H74.6666V24.1112H150.889V5.44446Z" fill="white"/>
</mask>
<g mask="url(#mask2_19_87)">
<path d="M78.3463 21.3999H89.3928C90.7937 21.3999 91.5233 20.6769 91.5233 19.2952V11.4381C91.5233 10.0565 90.7937 9.33337 89.3928 9.33337H78.3463C76.9517 9.33337 76.2222 10.05 76.2222 11.4381V19.2952C76.2222 20.6769 76.9517 21.3999 78.3463 21.3999ZM78.4302 20.1152C77.8362 20.1152 77.507 19.8053 77.507 19.179V11.5543C77.507 10.928 77.8362 10.6182 78.4302 10.6182H81.3742V20.1152H78.4302ZM89.3088 10.6182C89.9028 10.6182 90.2321 10.928 90.2321 11.5543V19.179C90.2321 19.8053 89.9028 20.1152 89.3088 20.1152H82.5944V10.6182H89.3088ZM80.1088 12.9811C80.3412 12.9811 80.5349 12.781 80.5349 12.5615C80.5349 12.3419 80.3412 12.1483 80.1088 12.1483H78.7853C78.5529 12.1483 78.3592 12.3419 78.3592 12.5615C78.3592 12.781 78.5529 12.9811 78.7853 12.9811H80.1088ZM80.1088 14.7178C80.3412 14.7178 80.5349 14.5241 80.5349 14.2982C80.5349 14.0787 80.3412 13.885 80.1088 13.885H78.7853C78.5529 13.885 78.3592 14.0787 78.3592 14.2982C78.3592 14.5241 78.5529 14.7178 78.7853 14.7178H80.1088ZM80.1088 16.4481C80.3412 16.4481 80.5349 16.2608 80.5349 16.0349C80.5349 15.8154 80.3412 15.6281 80.1088 15.6281H78.7853C78.5529 15.6281 78.3592 15.8154 78.3592 16.0349C78.3592 16.2608 78.5529 16.4481 78.7853 16.4481H80.1088Z" fill="#B7B7B7"/>
<path d="M116.199 20.2952L111.471 15.6711C111.307 15.507 111.222 15.3247 111.222 15.112C111.222 14.8994 111.307 14.7049 111.477 14.5469L116.205 9.92889C116.339 9.79521 116.509 9.72229 116.703 9.72229C117.11 9.72229 117.426 10.0383 117.426 10.4393C117.426 10.6337 117.347 10.8221 117.207 10.9619L112.954 15.106L117.207 19.2622C117.347 19.402 117.426 19.5843 117.426 19.7848C117.426 20.1858 117.11 20.5018 116.703 20.5018C116.509 20.5018 116.339 20.4289 116.199 20.2952Z" fill="#B7B7B7"/>
<path d="M139.556 20.5018C139.757 20.5018 139.921 20.4289 140.061 20.2952L144.788 15.6772C144.952 15.507 145.037 15.3308 145.037 15.112C145.037 14.8994 144.958 14.711 144.788 14.553L140.061 9.92889C139.921 9.79521 139.757 9.72229 139.556 9.72229C139.149 9.72229 138.833 10.0383 138.833 10.4393C138.833 10.6337 138.918 10.8221 139.052 10.9619L143.312 15.1181L139.052 19.2622C138.912 19.4081 138.833 19.5843 138.833 19.7848C138.833 20.1858 139.149 20.5018 139.556 20.5018Z" fill="#5A5A5A"/>
</g>
<mask id="mask3_19_87" style="mask-type:luminance" maskUnits="userSpaceOnUse" x="15" y="10" width="41" height="11">
<path d="M55.9999 10.8889H15.5555V20.2222H55.9999V10.8889Z" fill="white"/>
</mask>
<g mask="url(#mask3_19_87)">
<path d="M20.2222 20.2223C22.7995 20.2223 24.8889 18.1329 24.8889 15.5556C24.8889 12.9783 22.7995 10.8889 20.2222 10.8889C17.6449 10.8889 15.5555 12.9783 15.5555 15.5556C15.5555 18.1329 17.6449 20.2223 20.2222 20.2223Z" fill="#ED6A5E"/>
<path d="M20.2222 19.8334C22.5848 19.8334 24.5 17.9181 24.5 15.5556C24.5 13.193 22.5848 11.2778 20.2222 11.2778C17.8597 11.2778 15.9444 13.193 15.9444 15.5556C15.9444 17.9181 17.8597 19.8334 20.2222 19.8334Z" stroke="black" stroke-opacity="0.1" stroke-width="0.777778"/>
<path d="M35.7778 20.2223C38.3551 20.2223 40.4445 18.1329 40.4445 15.5556C40.4445 12.9783 38.3551 10.8889 35.7778 10.8889C33.2005 10.8889 31.1111 12.9783 31.1111 15.5556C31.1111 18.1329 33.2005 20.2223 35.7778 20.2223Z" fill="#F4BD50"/>
<path d="M35.7778 19.8334C38.1404 19.8334 40.0556 17.9181 40.0556 15.5556C40.0556 13.193 38.1404 11.2778 35.7778 11.2778C33.4153 11.2778 31.5 13.193 31.5 15.5556C31.5 17.9181 33.4153 19.8334 35.7778 19.8334Z" stroke="black" stroke-opacity="0.1" stroke-width="0.777778"/>
<path d="M51.3333 20.2223C53.9106 20.2223 56 18.1329 56 15.5556C56 12.9783 53.9106 10.8889 51.3333 10.8889C48.756 10.8889 46.6666 12.9783 46.6666 15.5556C46.6666 18.1329 48.756 20.2223 51.3333 20.2223Z" fill="#61C454"/>
<path d="M51.3333 19.8334C53.6959 19.8334 55.6111 17.9181 55.6111 15.5556C55.6111 13.193 53.6959 11.2778 51.3333 11.2778C48.9708 11.2778 47.0555 13.193 47.0555 15.5556C47.0555 17.9181 48.9708 19.8334 51.3333 19.8334Z" stroke="black" stroke-opacity="0.1" stroke-width="0.777778"/>
</g>
<path d="M220.889 21.7778C221.005 21.7778 221.178 21.7388 221.339 21.6478C225.046 19.6141 226.333 18.672 226.333 16.3069V11.4014C226.333 10.6217 226.031 10.3423 225.387 10.0629C224.673 9.75756 222.272 8.9129 221.571 8.6725C221.359 8.60102 221.108 8.55554 220.889 8.55554C220.67 8.55554 220.419 8.61402 220.207 8.6725C219.505 8.87391 217.105 9.76406 216.39 10.0629C215.747 10.3358 215.444 10.6217 215.444 11.4014V16.3069C215.444 18.672 216.738 19.6011 220.432 21.6478C220.599 21.7388 220.773 21.7778 220.889 21.7778ZM221.236 9.86802C222.079 10.2059 223.914 10.8621 224.879 11.2065C225.059 11.278 225.104 11.3754 225.104 11.6093V16.0665C225.104 17.9703 224.158 18.4836 221.256 20.2509C221.075 20.3613 220.985 20.4003 220.895 20.4003V9.79655C220.985 9.79655 221.082 9.81604 221.236 9.86802Z" fill="#B7B7B7"/>
</g>
<mask id="mask4_19_87" style="mask-type:luminance" maskUnits="userSpaceOnUse" x="238" y="5" width="160" height="22">
<path d="M397.947 5H238V26.7778H397.947V5Z" fill="white"/>
</mask>
<g mask="url(#mask4_19_87)">
<path d="M238 12.4667C238 9.85308 238 8.54629 238.463 7.54804C238.87 6.66995 239.52 5.95604 240.319 5.50863C241.227 5 242.416 5 244.795 5H391.153C393.531 5 394.72 5 395.629 5.50863C396.427 5.95604 397.077 6.66995 397.484 7.54804C397.947 8.54629 397.947 9.85308 397.947 12.4667V19.3111C397.947 21.9247 397.947 23.2315 397.484 24.2298C397.077 25.1078 396.427 25.8218 395.629 26.2692C394.72 26.7778 393.531 26.7778 391.153 26.7778H244.795C242.416 26.7778 241.227 26.7778 240.319 26.2692C239.52 25.8218 238.87 25.1078 238.463 24.2298C238 23.2315 238 21.9247 238 19.3111V12.4667Z" fill="#3C5175"/>
<mask id="mask5_19_87" style="mask-type:luminance" maskUnits="userSpaceOnUse" x="384" y="10" width="11" height="12">
<path d="M394.054 10.4445H384.854V21.3334H394.054V10.4445Z" fill="white"/>
</mask>
<g mask="url(#mask5_19_87)">
<path d="M389.334 15.6808C389.455 15.6808 389.549 15.6398 389.624 15.5532L391.325 13.671C391.416 13.5708 391.457 13.4614 391.457 13.3338C391.457 13.2108 391.412 13.0923 391.325 13.0011L389.624 11.1007C389.549 11.0096 389.455 10.964 389.334 10.964C389.11 10.964 388.931 11.1691 388.931 11.4197C388.931 11.5428 388.973 11.6431 389.043 11.7296L390.035 12.796C389.84 12.7641 389.641 12.7459 389.442 12.7459C387.389 12.7459 385.747 14.5506 385.747 16.811C385.747 19.0714 387.402 20.8898 389.455 20.8898C391.511 20.8898 393.162 19.0714 393.162 16.811C393.162 16.5376 392.987 16.3416 392.739 16.3416C392.498 16.3416 392.336 16.5376 392.336 16.811C392.336 18.5701 391.055 19.9829 389.455 19.9829C387.858 19.9829 386.572 18.5701 386.572 16.811C386.572 15.0382 387.845 13.6346 389.442 13.6346C389.711 13.6346 389.961 13.6574 390.18 13.6984L389.048 14.9289C388.973 15.0109 388.931 15.1112 388.931 15.2342C388.931 15.4848 389.11 15.6808 389.334 15.6808Z" fill="#E3E3E3"/>
</g>
<path d="M250.638 9.49997C249.175 9.49997 247.984 10.8084 247.984 12.4167V14.1667H247.453C246.868 14.1667 246.391 14.6899 246.391 15.3334V20C246.391 20.6434 246.868 21.1667 247.453 21.1667H253.823C254.408 21.1667 254.885 20.6434 254.885 20V15.3334C254.885 14.6899 254.408 14.1667 253.823 14.1667H253.292V12.4167C253.292 10.8084 252.101 9.49997 250.638 9.49997ZM253.823 15.3334L253.824 20H247.453V15.3334H253.823ZM249.046 14.1667V12.4167C249.046 11.4519 249.76 10.6667 250.638 10.6667C251.516 10.6667 252.231 11.4519 252.231 12.4167V14.1667H249.046Z" fill="white"/>
<g filter="url(#filter0_d_19_87)">
<path d="M266.842 16.4367V19.718H266.004V12.4453H266.842V15.1157H266.913C267.041 14.834 267.233 14.6103 267.488 14.4445C267.746 14.2765 268.09 14.1924 268.518 14.1924C268.89 14.1924 269.215 14.267 269.495 14.4161C269.774 14.5629 269.991 14.789 270.145 15.0944C270.301 15.3974 270.379 15.7833 270.379 16.2521V19.718H269.541V16.3089C269.541 15.8757 269.428 15.5407 269.204 15.3039C268.981 15.0648 268.672 14.9453 268.277 14.9453C268.002 14.9453 267.756 15.0033 267.538 15.1193C267.323 15.2353 267.152 15.4045 267.027 15.6271C266.904 15.8496 266.842 16.1195 266.842 16.4367ZM274.284 14.2634V14.9737H271.458V14.2634H274.284ZM272.281 12.9566H273.12V18.1555C273.12 18.3922 273.154 18.5698 273.223 18.6882C273.294 18.8042 273.384 18.8823 273.492 18.9225C273.604 18.9604 273.721 18.9794 273.844 18.9794C273.936 18.9794 274.012 18.9746 274.071 18.9651C274.13 18.9533 274.178 18.9438 274.213 18.9367L274.384 19.6896C274.327 19.7109 274.248 19.7322 274.146 19.7535C274.044 19.7772 273.915 19.789 273.759 19.789C273.522 19.789 273.29 19.7381 273.063 19.6363C272.838 19.5345 272.651 19.3794 272.502 19.1711C272.355 18.9628 272.281 18.7 272.281 18.3828V12.9566ZM277.917 14.2634V14.9737H275.09V14.2634H277.917ZM275.914 12.9566H276.752V18.1555C276.752 18.3922 276.787 18.5698 276.855 18.6882C276.926 18.8042 277.016 18.8823 277.125 18.9225C277.236 18.9604 277.354 18.9794 277.477 18.9794C277.569 18.9794 277.645 18.9746 277.704 18.9651C277.763 18.9533 277.811 18.9438 277.846 18.9367L278.017 19.6896C277.96 19.7109 277.88 19.7322 277.779 19.7535C277.677 19.7772 277.548 19.789 277.392 19.789C277.155 19.789 276.923 19.7381 276.696 19.6363C276.471 19.5345 276.284 19.3794 276.134 19.1711C275.988 18.9628 275.914 18.7 275.914 18.3828V12.9566ZM279.178 21.7634V14.2634H279.987V15.1299H280.087C280.148 15.0352 280.234 14.9145 280.343 14.7677C280.454 14.6186 280.612 14.486 280.818 14.37C281.027 14.2516 281.308 14.1924 281.664 14.1924C282.123 14.1924 282.528 14.3072 282.878 14.5369C283.228 14.7665 283.502 15.092 283.698 15.5134C283.895 15.9348 283.993 16.432 283.993 17.0049C283.993 17.5826 283.895 18.0833 283.698 18.507C283.502 18.9285 283.23 19.2552 282.882 19.4872C282.534 19.7168 282.132 19.8316 281.678 19.8316C281.327 19.8316 281.047 19.7736 280.836 19.6576C280.625 19.5392 280.463 19.4055 280.35 19.2563C280.236 19.1048 280.148 18.9794 280.087 18.8799H280.016V21.7634H279.178ZM280.002 16.9907C280.002 17.4026 280.062 17.766 280.183 18.0809C280.303 18.3934 280.48 18.6384 280.712 18.816C280.944 18.9912 281.228 19.0788 281.564 19.0788C281.915 19.0788 282.207 18.9865 282.441 18.8018C282.678 18.6148 282.856 18.3638 282.974 18.049C283.095 17.7317 283.155 17.379 283.155 16.9907C283.155 16.6072 283.096 16.2615 282.977 15.9538C282.861 15.6436 282.685 15.3986 282.448 15.2187C282.214 15.0364 281.919 14.9453 281.564 14.9453C281.223 14.9453 280.937 15.0317 280.705 15.2045C280.473 15.3749 280.298 15.6141 280.179 15.9218C280.061 16.2272 280.002 16.5835 280.002 16.9907ZM285.882 19.7748C285.707 19.7748 285.557 19.7121 285.431 19.5866C285.306 19.4611 285.243 19.3108 285.243 19.1356C285.243 18.9604 285.306 18.8101 285.431 18.6846C285.557 18.5591 285.707 18.4964 285.882 18.4964C286.058 18.4964 286.208 18.5591 286.333 18.6846C286.459 18.8101 286.522 18.9604 286.522 19.1356C286.522 19.2516 286.492 19.3581 286.433 19.4552C286.376 19.5523 286.299 19.6304 286.202 19.6896C286.107 19.7464 286.001 19.7748 285.882 19.7748ZM285.882 15.7265C285.707 15.7265 285.557 15.6638 285.431 15.5383C285.306 15.4128 285.243 15.2625 285.243 15.0873C285.243 14.9121 285.306 14.7618 285.431 14.6363C285.557 14.5108 285.707 14.4481 285.882 14.4481C286.058 14.4481 286.208 14.5108 286.333 14.6363C286.459 14.7618 286.522 14.9121 286.522 15.0873C286.522 15.2033 286.492 15.3098 286.433 15.4069C286.376 15.504 286.299 15.5821 286.202 15.6413C286.107 15.6981 286.001 15.7265 285.882 15.7265ZM290.596 12.1044L288.253 20.8117H287.486L289.829 12.1044H290.596ZM294.161 12.1044L291.817 20.8117H291.05L293.394 12.1044H294.161ZM295.268 19.718V12.4453H296.106V15.1299H296.177C296.239 15.0352 296.324 14.9145 296.433 14.7677C296.544 14.6186 296.703 14.486 296.909 14.37C297.117 14.2516 297.399 14.1924 297.754 14.1924C298.213 14.1924 298.618 14.3072 298.968 14.5369C299.319 14.7665 299.592 15.092 299.789 15.5134C299.985 15.9348 300.083 16.432 300.083 17.0049C300.083 17.5826 299.985 18.0833 299.789 18.507C299.592 18.9285 299.32 19.2552 298.972 19.4872C298.624 19.7168 298.223 19.8316 297.768 19.8316C297.418 19.8316 297.137 19.7736 296.926 19.6576C296.716 19.5392 296.553 19.4055 296.44 19.2563C296.326 19.1048 296.239 18.9794 296.177 18.8799H296.078V19.718H295.268ZM296.092 16.9907C296.092 17.4026 296.152 17.766 296.273 18.0809C296.394 18.3934 296.57 18.6384 296.802 18.816C297.034 18.9912 297.318 19.0788 297.654 19.0788C298.005 19.0788 298.297 18.9865 298.531 18.8018C298.768 18.6148 298.946 18.3638 299.064 18.049C299.185 17.7317 299.245 17.379 299.245 16.9907C299.245 16.6072 299.186 16.2615 299.068 15.9538C298.952 15.6436 298.775 15.3986 298.539 15.2187C298.304 15.0364 298.009 14.9453 297.654 14.9453C297.313 14.9453 297.027 15.0317 296.795 15.2045C296.563 15.3749 296.388 15.6141 296.269 15.9218C296.151 16.2272 296.092 16.5835 296.092 16.9907ZM302.203 12.4453V19.718H301.365V12.4453H302.203ZM305.954 19.8316C305.462 19.8316 305.03 19.7144 304.658 19.4801C304.289 19.2457 304 18.9178 303.792 18.4964C303.586 18.075 303.483 17.5826 303.483 17.0191C303.483 16.4509 303.586 15.955 303.792 15.5312C304 15.1074 304.289 14.7784 304.658 14.544C305.03 14.3096 305.462 14.1924 305.954 14.1924C306.447 14.1924 306.878 14.3096 307.247 14.544C307.619 14.7784 307.907 15.1074 308.113 15.5312C308.322 15.955 308.426 16.4509 308.426 17.0191C308.426 17.5826 308.322 18.075 308.113 18.4964C307.907 18.9178 307.619 19.2457 307.247 19.4801C306.878 19.7144 306.447 19.8316 305.954 19.8316ZM305.954 19.0788C306.328 19.0788 306.636 18.9829 306.878 18.7911C307.119 18.5994 307.298 18.3472 307.414 18.0347C307.53 17.7222 307.588 17.3837 307.588 17.0191C307.588 16.6545 307.53 16.3148 307.414 15.9999C307.298 15.6851 307.119 15.4306 306.878 15.2365C306.636 15.0423 306.328 14.9453 305.954 14.9453C305.58 14.9453 305.272 15.0423 305.031 15.2365C304.789 15.4306 304.611 15.6851 304.495 15.9999C304.379 16.3148 304.321 16.6545 304.321 17.0191C304.321 17.3837 304.379 17.7222 304.495 18.0347C304.611 18.3472 304.789 18.5994 305.031 18.7911C305.272 18.9829 305.58 19.0788 305.954 19.0788ZM311.907 21.8771C311.502 21.8771 311.154 21.825 310.863 21.7208C310.572 21.619 310.329 21.4841 310.135 21.316C309.943 21.1503 309.79 20.9727 309.677 20.7833L310.344 20.3146C310.42 20.414 310.516 20.5276 310.632 20.6555C310.748 20.7857 310.907 20.8981 311.108 20.9928C311.311 21.0899 311.578 21.1384 311.907 21.1384C312.347 21.1384 312.711 21.0319 312.997 20.8188C313.283 20.6058 313.427 20.272 313.427 19.8174V18.7095H313.356C313.294 18.8089 313.207 18.932 313.093 19.0788C312.982 19.2232 312.821 19.3522 312.61 19.4659C312.402 19.5771 312.12 19.6328 311.765 19.6328C311.324 19.6328 310.929 19.5286 310.579 19.3203C310.231 19.1119 309.955 18.8089 309.751 18.4112C309.55 18.0134 309.449 17.5305 309.449 16.9623C309.449 16.4036 309.548 15.9171 309.744 15.5028C309.941 15.0861 310.214 14.7642 310.565 14.5369C310.915 14.3072 311.32 14.1924 311.779 14.1924C312.134 14.1924 312.416 14.2516 312.624 14.37C312.835 14.486 312.996 14.6186 313.107 14.7677C313.221 14.9145 313.308 15.0352 313.37 15.1299H313.455V14.2634H314.265V19.8742C314.265 20.343 314.158 20.7241 313.945 21.0177C313.734 21.3136 313.45 21.5303 313.093 21.6676C312.738 21.8072 312.342 21.8771 311.907 21.8771ZM311.878 18.8799C312.215 18.8799 312.499 18.803 312.731 18.6491C312.963 18.4952 313.139 18.2739 313.26 17.985C313.381 17.6962 313.441 17.3506 313.441 16.9481C313.441 16.5551 313.382 16.2083 313.263 15.9076C313.145 15.607 312.97 15.3714 312.738 15.2009C312.506 15.0305 312.219 14.9453 311.878 14.9453C311.523 14.9453 311.227 15.0352 310.991 15.2151C310.756 15.3951 310.58 15.6365 310.462 15.9396C310.346 16.2426 310.288 16.5788 310.288 16.9481C310.288 17.3269 310.347 17.6619 310.465 17.9531C310.586 18.2419 310.763 18.4692 310.998 18.6349C311.234 18.7982 311.528 18.8799 311.878 18.8799ZM316.41 19.7748C316.234 19.7748 316.084 19.7121 315.959 19.5866C315.833 19.4611 315.77 19.3108 315.77 19.1356C315.77 18.9604 315.833 18.8101 315.959 18.6846C316.084 18.5591 316.234 18.4964 316.41 18.4964C316.585 18.4964 316.735 18.5591 316.861 18.6846C316.986 18.8101 317.049 18.9604 317.049 19.1356C317.049 19.2516 317.019 19.3581 316.96 19.4552C316.903 19.5523 316.826 19.6304 316.729 19.6896C316.635 19.7464 316.528 19.7748 316.41 19.7748ZM319.789 19.718L318.127 14.2634H319.007L320.186 18.4396H320.243L321.408 14.2634H322.303L323.453 18.4254H323.51L324.689 14.2634H325.57L323.908 19.718H323.084L321.891 15.5276H321.806L320.612 19.718H319.789ZM328.779 19.8316C328.254 19.8316 327.8 19.7156 327.419 19.4836C327.04 19.2492 326.748 18.9225 326.542 18.5035C326.338 18.0821 326.237 17.592 326.237 17.0333C326.237 16.4746 326.338 15.9822 326.542 15.5561C326.748 15.1276 327.034 14.7937 327.401 14.5546C327.771 14.3132 328.202 14.1924 328.694 14.1924C328.978 14.1924 329.259 14.2398 329.536 14.3345C329.813 14.4292 330.065 14.583 330.292 14.7961C330.519 15.0068 330.7 15.2862 330.835 15.6342C330.97 15.9822 331.038 16.4107 331.038 16.9197V17.2748H326.833V16.5504H330.185C330.185 16.2426 330.124 15.968 330.001 15.7265C329.88 15.485 329.707 15.2945 329.482 15.1548C329.26 15.0151 328.997 14.9453 328.694 14.9453C328.36 14.9453 328.071 15.0281 327.827 15.1938C327.586 15.3572 327.4 15.5703 327.27 15.833C327.14 16.0958 327.075 16.3776 327.075 16.6782V17.1612C327.075 17.5731 327.146 17.9223 327.288 18.2088C327.432 18.4928 327.632 18.7095 327.888 18.8586C328.144 19.0054 328.441 19.0788 328.779 19.0788C328.999 19.0788 329.198 19.048 329.376 18.9865C329.556 18.9225 329.711 18.8278 329.841 18.7024C329.971 18.5745 330.072 18.4159 330.143 18.2265L330.952 18.4538C330.867 18.7284 330.724 18.9699 330.523 19.1782C330.322 19.3842 330.073 19.5452 329.777 19.6612C329.481 19.7748 329.148 19.8316 328.779 19.8316ZM333.151 16.4367V19.718H332.313V14.2634H333.122V15.1157H333.193C333.321 14.8387 333.515 14.6162 333.776 14.4481C334.036 14.2776 334.372 14.1924 334.784 14.1924C335.153 14.1924 335.477 14.2682 335.754 14.4197C336.031 14.5688 336.246 14.7961 336.4 15.1015C336.554 15.4045 336.631 15.7881 336.631 16.2521V19.718H335.793V16.3089C335.793 15.8804 335.681 15.5466 335.459 15.3075C335.236 15.066 334.931 14.9453 334.543 14.9453C334.275 14.9453 334.036 15.0033 333.825 15.1193C333.617 15.2353 333.452 15.4045 333.332 15.6271C333.211 15.8496 333.151 16.1195 333.151 16.4367ZM339 16.4367V19.718H338.162V12.4453H339V15.1157H339.071C339.199 14.834 339.391 14.6103 339.647 14.4445C339.905 14.2765 340.248 14.1924 340.676 14.1924C341.048 14.1924 341.374 14.267 341.653 14.4161C341.932 14.5629 342.149 14.789 342.303 15.0944C342.459 15.3974 342.537 15.7833 342.537 16.2521V19.718H341.699V16.3089C341.699 15.8757 341.587 15.5407 341.362 15.3039C341.139 15.0648 340.83 14.9453 340.435 14.9453C340.16 14.9453 339.914 15.0033 339.696 15.1193C339.481 15.2353 339.31 15.4045 339.185 15.6271C339.062 15.8496 339 16.1195 339 16.4367ZM345.675 19.8458C345.33 19.8458 345.016 19.7807 344.734 19.6505C344.453 19.5179 344.229 19.3274 344.063 19.0788C343.898 18.8278 343.815 18.5248 343.815 18.1697C343.815 17.8572 343.876 17.6039 343.999 17.4097C344.122 17.2133 344.287 17.0594 344.493 16.9481C344.699 16.8368 344.926 16.754 345.175 16.6995C345.426 16.6427 345.678 16.5977 345.931 16.5646C346.263 16.522 346.531 16.49 346.737 16.4687C346.946 16.445 347.097 16.406 347.192 16.3515C347.289 16.2971 347.337 16.2024 347.337 16.0674V16.039C347.337 15.6886 347.242 15.4164 347.05 15.2222C346.86 15.0281 346.573 14.9311 346.187 14.9311C345.787 14.9311 345.473 15.0186 345.246 15.1938C345.019 15.369 344.859 15.5561 344.766 15.7549L343.971 15.4708C344.113 15.1394 344.302 14.8813 344.539 14.6967C344.778 14.5097 345.039 14.3794 345.32 14.3061C345.604 14.2303 345.884 14.1924 346.158 14.1924C346.334 14.1924 346.535 14.2137 346.762 14.2563C346.992 14.2966 347.213 14.3806 347.426 14.5085C347.642 14.6363 347.82 14.8293 347.962 15.0873C348.104 15.3454 348.175 15.691 348.175 16.1242V19.718H347.337V18.9794H347.295C347.238 19.0977 347.143 19.2244 347.011 19.3593C346.878 19.4943 346.702 19.6091 346.482 19.7038C346.261 19.7985 345.993 19.8458 345.675 19.8458ZM345.803 19.093C346.135 19.093 346.414 19.0279 346.641 18.8977C346.871 18.7675 347.044 18.5994 347.16 18.3934C347.278 18.1874 347.337 17.9708 347.337 17.7436V16.9765C347.302 17.0191 347.224 17.0582 347.103 17.0937C346.985 17.1268 346.847 17.1564 346.691 17.1825C346.537 17.2061 346.387 17.2275 346.24 17.2464C346.096 17.263 345.979 17.2772 345.889 17.289C345.671 17.3174 345.467 17.3636 345.278 17.4275C345.091 17.4891 344.939 17.5826 344.823 17.708C344.71 17.8311 344.653 17.9992 344.653 18.2123C344.653 18.5035 344.76 18.7237 344.976 18.8728C345.194 19.0196 345.47 19.093 345.803 19.093ZM351.921 19.8316C351.429 19.8316 350.997 19.7144 350.625 19.4801C350.256 19.2457 349.967 18.9178 349.758 18.4964C349.552 18.075 349.449 17.5826 349.449 17.0191C349.449 16.4509 349.552 15.955 349.758 15.5312C349.967 15.1074 350.256 14.7784 350.625 14.544C350.997 14.3096 351.429 14.1924 351.921 14.1924C352.413 14.1924 352.844 14.3096 353.214 14.544C353.585 14.7784 353.874 15.1074 354.08 15.5312C354.288 15.955 354.393 16.4509 354.393 17.0191C354.393 17.5826 354.288 18.075 354.08 18.4964C353.874 18.9178 353.585 19.2457 353.214 19.4801C352.844 19.7144 352.413 19.8316 351.921 19.8316ZM351.921 19.0788C352.295 19.0788 352.603 18.9829 352.844 18.7911C353.086 18.5994 353.265 18.3472 353.381 18.0347C353.497 17.7222 353.555 17.3837 353.555 17.0191C353.555 16.6545 353.497 16.3148 353.381 15.9999C353.265 15.6851 353.086 15.4306 352.844 15.2365C352.603 15.0423 352.295 14.9453 351.921 14.9453C351.547 14.9453 351.239 15.0423 350.998 15.2365C350.756 15.4306 350.578 15.6851 350.462 15.9999C350.346 16.3148 350.288 16.6545 350.288 17.0191C350.288 17.3837 350.346 17.7222 350.462 18.0347C350.578 18.3472 350.756 18.5994 350.998 18.7911C351.239 18.9829 351.547 19.0788 351.921 19.0788ZM356.283 19.7748C356.108 19.7748 355.957 19.7121 355.832 19.5866C355.706 19.4611 355.644 19.3108 355.644 19.1356C355.644 18.9604 355.706 18.8101 355.832 18.6846C355.957 18.5591 356.108 18.4964 356.283 18.4964C356.458 18.4964 356.608 18.5591 356.734 18.6846C356.859 18.8101 356.922 18.9604 356.922 19.1356C356.922 19.2516 356.892 19.3581 356.833 19.4552C356.776 19.5523 356.699 19.6304 356.602 19.6896C356.508 19.7464 356.401 19.7748 356.283 19.7748ZM358.426 19.718V14.2634H359.264V19.718H358.426ZM358.852 13.3544C358.689 13.3544 358.548 13.2987 358.429 13.1874C358.313 13.0762 358.255 12.9424 358.255 12.7862C358.255 12.6299 358.313 12.4962 358.429 12.3849C358.548 12.2736 358.689 12.218 358.852 12.218C359.015 12.218 359.155 12.2736 359.271 12.3849C359.389 12.4962 359.449 12.6299 359.449 12.7862C359.449 12.9424 359.389 13.0762 359.271 13.1874C359.155 13.2987 359.015 13.3544 358.852 13.3544ZM361.637 16.4367V19.718H360.799V14.2634H361.609V15.1157H361.68C361.807 14.8387 362.002 14.6162 362.262 14.4481C362.522 14.2776 362.859 14.1924 363.27 14.1924C363.64 14.1924 363.963 14.2682 364.24 14.4197C364.517 14.5688 364.732 14.7961 364.886 15.1015C365.04 15.4045 365.117 15.7881 365.117 16.2521V19.718H364.279V16.3089C364.279 15.8804 364.168 15.5466 363.945 15.3075C363.723 15.066 363.417 14.9453 363.029 14.9453C362.761 14.9453 362.522 15.0033 362.312 15.1193C362.103 15.2353 361.939 15.4045 361.818 15.6271C361.697 15.8496 361.637 16.1195 361.637 16.4367ZM369.077 14.2634V14.9737H366.137V14.2634H369.077ZM367.018 19.718V13.5106C367.018 13.1981 367.091 12.9377 367.238 12.7294C367.385 12.521 367.575 12.3648 367.81 12.2606C368.044 12.1564 368.291 12.1044 368.552 12.1044C368.758 12.1044 368.926 12.1209 369.056 12.1541C369.186 12.1872 369.283 12.218 369.347 12.2464L369.106 12.9708C369.063 12.9566 369.004 12.9389 368.928 12.9176C368.855 12.8963 368.758 12.8856 368.637 12.8856C368.36 12.8856 368.16 12.9554 368.037 13.0951C367.916 13.2348 367.856 13.4396 367.856 13.7095V19.718H367.018ZM372.243 19.8316C371.751 19.8316 371.319 19.7144 370.947 19.4801C370.578 19.2457 370.289 18.9178 370.081 18.4964C369.875 18.075 369.772 17.5826 369.772 17.0191C369.772 16.4509 369.875 15.955 370.081 15.5312C370.289 15.1074 370.578 14.7784 370.947 14.544C371.319 14.3096 371.751 14.1924 372.243 14.1924C372.736 14.1924 373.167 14.3096 373.536 14.544C373.908 14.7784 374.196 15.1074 374.402 15.5312C374.611 15.955 374.715 16.4509 374.715 17.0191C374.715 17.5826 374.611 18.075 374.402 18.4964C374.196 18.9178 373.908 19.2457 373.536 19.4801C373.167 19.7144 372.736 19.8316 372.243 19.8316ZM372.243 19.0788C372.617 19.0788 372.925 18.9829 373.167 18.7911C373.408 18.5994 373.587 18.3472 373.703 18.0347C373.819 17.7222 373.877 17.3837 373.877 17.0191C373.877 16.6545 373.819 16.3148 373.703 15.9999C373.587 15.6851 373.408 15.4306 373.167 15.2365C372.925 15.0423 372.617 14.9453 372.243 14.9453C371.869 14.9453 371.561 15.0423 371.32 15.2365C371.079 15.4306 370.9 15.6851 370.784 15.9999C370.668 16.3148 370.61 16.6545 370.61 17.0191C370.61 17.3837 370.668 17.7222 370.784 18.0347C370.9 18.3472 371.079 18.5994 371.32 18.7911C371.561 18.9829 371.869 19.0788 372.243 19.0788Z" fill="white"/>
</g>
</g>
</g>
<defs>
<filter id="filter0_d_19_87" x="262.004" y="12.1043" width="116.711" height="17.7727" filterUnits="userSpaceOnUse" color-interpolation-filters="sRGB">
<feFlood flood-opacity="0" result="BackgroundImageFix"/>
<feColorMatrix in="SourceAlpha" type="matrix" values="0 0 0 0 0 0 0 0 0 0 0 0 0 0 0 0 0 0 127 0" result="hardAlpha"/>
<feOffset dy="4"/>
<feGaussianBlur stdDeviation="2"/>
<feComposite in2="hardAlpha" operator="out"/>
<feColorMatrix type="matrix" values="0 0 0 0 0 0 0 0 0 0 0 0 0 0 0 0 0 0 0.25 0"/>
<feBlend mode="normal" in2="BackgroundImageFix" result="effect1_dropShadow_19_87"/>
<feBlend mode="normal" in="SourceGraphic" in2="effect1_dropShadow_19_87" result="shape"/>
</filter>
<clipPath id="clip0_19_87">
<rect width="644" height="32" fill="white"/>
</clipPath>
</defs>
</svg>
