<svg width="40" height="40" viewBox="0 0 40 40" fill="none" xmlns="http://www.w3.org/2000/svg">
	<path d="M20 0C8.95536 0 0 8.95536 0 20C0 31.0446 8.95536 40 20 40C31.0446 40 40 31.0446 40 20C40 8.95536 31.0446 0 20 0ZM29.3973 27.3393C28.8839 27.4018 27.3929 24.9866 27.3929 24.9866C27.3929 26.3839 26.6696 28.2098 25.1116 29.5313C25.8661 29.7634 27.5625 30.3884 27.1607 31.067C26.8348 31.6161 21.5536 31.4196 20.0268 31.2455C18.5 31.4152 13.2187 31.6161 12.8929 31.067C12.4866 30.3884 14.183 29.7634 14.9375 29.5313C13.375 28.2143 12.6563 26.3884 12.6563 24.9866C12.6563 24.9866 11.1652 27.4018 10.6518 27.3393C10.4107 27.308 10.0982 26.0179 11.0714 22.8884C11.5313 21.4152 12.0536 20.1875 12.8661 18.1652C12.7277 12.9464 14.8884 8.56696 20.0268 8.56696C25.1116 8.56696 27.317 12.8571 27.1875 18.1652C27.9955 20.183 28.5223 21.4152 28.9821 22.8884C29.9509 26.0179 29.6339 27.3125 29.3973 27.3393Z" fill="white" />
</svg>
