<svg width="40" height="40" viewBox="0 0 40 40" fill="none" xmlns="http://www.w3.org/2000/svg">
<path d="M22.6395 19.9838C22.1834 19.9838 21.7272 20.4073 21.7272 20.9286C21.7272 21.3522 22.1832 21.7758 22.6395 21.7758C23.3239 21.7758 23.8126 21.3522 23.8126 20.9286C23.8126 20.4073 23.3239 19.9838 22.6395 19.9838ZM19.6416 15.5846C20.3585 15.5846 20.8148 15.1286 20.8148 14.4441C20.8148 13.7272 20.3585 13.3037 19.6416 13.3037C18.9573 13.3037 18.3056 13.7272 18.3056 14.4441C18.3055 15.1286 18.9573 15.5846 19.6416 15.5846ZM20 0C8.95423 0 0 8.95423 0 20C0 31.0458 8.95423 40 20 40C31.0458 40 40 31.0458 40 20C40 8.95423 31.0458 0 20 0ZM16.2202 25.067C15.0144 25.067 14.1346 24.8717 12.9941 24.5457L9.70298 26.2077L10.6481 23.4052C8.33452 21.776 6.96583 19.7231 6.96583 17.214C6.96583 12.7823 11.1368 9.39344 16.2202 9.39344C20.717 9.39344 24.7251 12.0655 25.5071 15.8456C25.1812 15.7803 24.8879 15.7478 24.6272 15.7478C20.1956 15.7478 16.7742 19.0714 16.7742 23.0795C16.7742 23.7637 16.872 24.3828 17.0349 25.0346C16.7742 25.067 16.4808 25.067 16.2201 25.067L16.2202 25.067ZM29.8083 28.2604L30.4599 30.6067L27.9835 29.2055C27.0386 29.4009 26.1261 29.6942 25.1812 29.6942C20.8146 29.6942 17.3606 26.6965 17.3606 22.9817C17.3606 19.267 20.8147 16.2691 25.1812 16.2691C29.3194 16.2691 33.0342 19.267 33.0342 22.9817C33.0342 25.067 31.6331 26.9244 29.8083 28.2604ZM13.1897 13.3037C12.5054 13.3037 11.7885 13.7272 11.7885 14.4441C11.7885 15.1286 12.5054 15.5848 13.1897 15.5848C13.8415 15.5848 14.3628 15.1286 14.3628 14.4441C14.3628 13.7273 13.8415 13.3037 13.1897 13.3037ZM27.7555 19.9838C27.2666 19.9838 26.843 20.4073 26.843 20.9286C26.843 21.3522 27.2666 21.7758 27.7555 21.7758C28.4071 21.7758 28.8959 21.3522 28.8959 20.9286C28.8959 20.4073 28.4071 19.9838 27.7555 19.9838Z" fill="white"/>
</svg>
