<svg width="40" height="40" viewBox="0 0 40 40" fill="none" xmlns="http://www.w3.org/2000/svg">
	<g clip-path="url(#clip0_45_281)">
		<path d="M19.9987 39.4987C9.24801 39.4987 0.501343 30.7507 0.501343 20C0.501343 9.24933 9.24801 0.501328 19.9987 0.501328C30.7507 0.501328 39.4987 9.24933 39.4987 20C39.4987 30.7507 30.7507 39.4987 19.9987 39.4987ZM19.9987 3.16666C10.7187 3.16666 3.16801 10.7187 3.16801 20C3.16801 29.2813 10.7187 36.8333 19.9987 36.8333C29.2813 36.8333 36.832 29.2827 36.832 20C36.832 10.7187 29.2813 3.16666 19.9987 3.16666Z" fill="white" />
		<path d="M22.032 29.628C16.7227 29.628 12.4013 25.3107 12.4013 20C12.4013 14.6907 16.7213 10.3707 22.032 10.3707C23.3333 10.3707 24.5947 10.6253 25.7827 11.128L24.7413 13.584C23.6825 13.1392 22.5302 12.9629 21.3868 13.0708C20.2434 13.1786 19.1443 13.5672 18.1873 14.2021C17.2302 14.8369 16.4448 15.6984 15.9009 16.7099C15.357 17.7213 15.0713 18.8515 15.0693 20C15.0718 21.846 15.8064 23.6156 17.1119 24.9206C18.4175 26.2257 20.1874 26.9596 22.0333 26.9613C23.2867 26.9613 24.5133 26.6253 25.58 25.9893L26.944 28.2813C25.4576 29.1639 23.7607 29.6292 22.032 29.628Z" fill="white" />
	</g>
	<defs>
		<clipPath id="clip0_45_281">
			<rect width="40" height="40" fill="white" />
		</clipPath>
	</defs>
</svg>
