<svg width="48" height="48" viewBox="0 0 48 48" fill="none" xmlns="http://www.w3.org/2000/svg">
	<path d="M25.0049 43C33.2261 40 38.7069 35.75 41.4474 30.5C45.0099 24.25 45.832 17 44.1878 8.5L25.0049 3L5.82212 8.75C4.17788 17 5 24.25 8.28848 30.5C11.3029 35.75 16.7837 40 25.0049 43ZM10.7548 29.5C7.7404 24 6.91828 17.75 8.28848 10.5L25.0049 5.5L41.7214 10.5C42.8176 17.75 41.9954 24 38.981 29.25C36.5146 33.75 31.8559 37.25 25.0049 40C17.8799 37.5 13.2212 33.75 10.7548 29.5Z" fill="white" />
	<path d="M24 29.6L14.9333 20.5333L17.0667 18.6667L24 25.6L33.6 16L35.7333 17.8667L24 29.6Z" fill="white" />
</svg>
