<svg width="120" height="114" viewBox="0 0 120 114" fill="none" xmlns="http://www.w3.org/2000/svg">
<rect y="2" width="119" height="111" rx="18" fill="#D9D9D9"/>
<mask id="mask0_0_1" style="mask-type:luminance" maskUnits="userSpaceOnUse" x="0" y="0" width="120" height="114">
<path d="M102.857 0H17.1429C7.67512 0 0 7.28846 0 16.2792V97.6753C0 106.666 7.67512 113.955 17.1429 113.955H102.857C112.325 113.955 120 106.666 120 97.6753V16.2792C120 7.28846 112.325 0 102.857 0Z" fill="white"/>
</mask>
<g mask="url(#mask0_0_1)">
<path d="M102.857 0H17.1429C7.67512 0 0 7.28846 0 16.2792V97.6753C0 106.666 7.67512 113.955 17.1429 113.955H102.857C112.325 113.955 120 106.666 120 97.6753V16.2792C120 7.28846 112.325 0 102.857 0Z" fill="#00423E"/>
<path d="M162.613 -25.2627C162.613 -25.2627 117.392 -4.81201 125.418 45.7791C134.423 102.505 82.2043 126.851 46.5271 112.828C10.85 98.7561 13.3459 46.7043 -54.4848 45.0974C-123.784 43.4906 -138.368 -22.0491 -138.368 -22.0491" stroke="white" stroke-opacity="0.2" stroke-width="2" stroke-miterlimit="10"/>
<path d="M110.345 -40.5037C110.345 -40.5037 90.7687 2.73498 97.7671 45.7301C104.814 88.7252 73.1503 93.7892 60.5728 88.7252C34.439 78.3052 29.3981 22.5039 -12.7881 18.9007C-44.5011 16.174 -87.1767 37.7445 -109.787 -11.191" stroke="white" stroke-opacity="0.2" stroke-width="2" stroke-miterlimit="10"/>
<path d="M89.2516 -21.2213C89.2516 -21.2213 96.299 22.9425 65.1242 15.0543C29.3982 5.99763 29.9364 -15.2321 -15.2839 4.82901C-31.3851 11.9868 -96.1815 14.0805 -83.1145 -25.2627" stroke="white" stroke-opacity="0.2" stroke-width="2" stroke-miterlimit="10"/>
<path d="M66.6415 73.4849C74.1285 73.4849 80.1977 64.5904 80.1977 53.6185C80.1977 42.6467 74.1285 33.7522 66.6415 33.7522C59.1545 33.7522 53.0851 42.6467 53.0851 53.6185C53.0851 64.5904 59.1545 73.4849 66.6415 73.4849Z" stroke="white" stroke-opacity="0.2" stroke-width="2" stroke-miterlimit="10"/>
</g>
<path d="M69.7017 26.0095H85.2L60 70.4057L34.8 26.0095H18L60 100L102 26L69.7017 26.0095Z" fill="#41B883"/>
<path d="M89 26H71.1646L60 44.0901L48.8354 26H31L60 73L89 26Z" fill="#34495E"/>
</svg>
